<mxfile host="app.diagrams.net" modified="2020-11-20T22:23:46.861Z" agent="5.0 (Windows NT 10.0; Win64; x64) AppleWebKit/537.36 (KHTML, like Gecko) Chrome/84.0.4147.89 Safari/537.36" etag="V3Vr2OWgO-457Zxb_IkA" version="13.10.0" type="github">
  <diagram id="B96TaIfQ35XsG7pZSsW8" name="Startseite">
    <mxGraphModel dx="2476" dy="1398" grid="1" gridSize="10" guides="1" tooltips="1" connect="1" arrows="1" fold="1" page="0" pageScale="1" pageWidth="827" pageHeight="1169" math="0" shadow="0">
      <root>
        <mxCell id="0" />
        <mxCell id="1" parent="0" />
        <mxCell id="_LLoPAO4SvOWdNi-FfkY-7" value="" style="rounded=0;whiteSpace=wrap;html=1;strokeColor=none;opacity=20;fillColor=#00AD8B;" vertex="1" parent="1">
          <mxGeometry y="125" width="1400" height="1095" as="geometry" />
        </mxCell>
        <mxCell id="_LLoPAO4SvOWdNi-FfkY-6" value="" style="rounded=0;whiteSpace=wrap;html=1;strokeColor=none;fillColor=#FFFFFF;" vertex="1" parent="1">
          <mxGeometry y="-130" width="1400" height="250" as="geometry" />
        </mxCell>
        <mxCell id="D3AVguaPXxd2OEuv3srP-10" value="" style="verticalLabelPosition=bottom;shadow=0;dashed=0;align=center;html=1;verticalAlign=top;strokeWidth=1;shape=mxgraph.mockup.graphics.simpleIcon;strokeColor=#999999;" parent="1" vertex="1">
          <mxGeometry x="80" y="160" width="340" height="200" as="geometry" />
        </mxCell>
        <mxCell id="zXE36dw8NgoIa7MhYFlX-1" value="" style="rounded=0;whiteSpace=wrap;html=1;strokeColor=none;fillColor=#32435B;" parent="1" vertex="1">
          <mxGeometry y="80" width="1400" height="60" as="geometry" />
        </mxCell>
        <mxCell id="zXE36dw8NgoIa7MhYFlX-2" value="" style="strokeWidth=1;shadow=0;dashed=0;align=center;html=1;shape=mxgraph.mockup.text.rrect;rSize=0;strokeColor=none;fillColor=none;" parent="1" vertex="1">
          <mxGeometry y="80" width="810" height="60" as="geometry" />
        </mxCell>
        <mxCell id="zXE36dw8NgoIa7MhYFlX-3" value="&lt;font color=&quot;#ffffff&quot; style=&quot;font-size: 20px&quot;&gt;Musik&lt;/font&gt;" style="strokeColor=inherit;fillColor=inherit;gradientColor=inherit;strokeWidth=1;shadow=0;dashed=0;align=center;html=1;shape=mxgraph.mockup.text.rrect;rSize=0;fontSize=17;fontColor=#0000ff;" parent="zXE36dw8NgoIa7MhYFlX-2" vertex="1">
          <mxGeometry x="202.5" width="202.5" height="60" as="geometry" />
        </mxCell>
        <mxCell id="zXE36dw8NgoIa7MhYFlX-4" value="&lt;font color=&quot;#ffffff&quot; style=&quot;font-size: 20px&quot;&gt;Bilder&lt;/font&gt;" style="strokeColor=inherit;fillColor=inherit;gradientColor=inherit;strokeWidth=1;shadow=0;dashed=0;align=center;html=1;shape=mxgraph.mockup.text.rrect;rSize=0;fontSize=17;fontColor=#0000ff;" parent="zXE36dw8NgoIa7MhYFlX-2" vertex="1">
          <mxGeometry x="405" width="202.5" height="60" as="geometry" />
        </mxCell>
        <mxCell id="zXE36dw8NgoIa7MhYFlX-5" value="&lt;font color=&quot;#ffffff&quot; style=&quot;font-size: 20px&quot;&gt;Videos&lt;/font&gt;" style="strokeColor=inherit;fillColor=inherit;gradientColor=inherit;strokeWidth=1;shadow=0;dashed=0;align=center;html=1;shape=mxgraph.mockup.text.rrect;rSize=0;fontSize=17;fontColor=#0000ff;" parent="zXE36dw8NgoIa7MhYFlX-2" vertex="1">
          <mxGeometry x="607.5" width="202.5" height="60" as="geometry" />
        </mxCell>
        <mxCell id="zXE36dw8NgoIa7MhYFlX-6" value="&lt;font style=&quot;font-size: 20px&quot;&gt;Beiträge&lt;/font&gt;" style="strokeWidth=1;shadow=0;dashed=0;align=center;html=1;shape=mxgraph.mockup.text.rrect;rSize=0;fontSize=17;fontColor=#ffffff;strokeColor=none;fillColor=none;" parent="zXE36dw8NgoIa7MhYFlX-2" vertex="1">
          <mxGeometry width="202.5" height="60" as="geometry" />
        </mxCell>
        <mxCell id="zXE36dw8NgoIa7MhYFlX-19" value="" style="verticalLabelPosition=bottom;shadow=0;dashed=0;align=center;html=1;verticalAlign=top;strokeWidth=1;shape=mxgraph.mockup.graphics.simpleIcon;strokeColor=#999999;" parent="1" vertex="1">
          <mxGeometry x="40" y="430" width="240" height="160" as="geometry" />
        </mxCell>
        <mxCell id="zXE36dw8NgoIa7MhYFlX-20" value="&lt;h1 style=&quot;font-size: 22px&quot;&gt;&lt;font style=&quot;font-size: 22px&quot;&gt;Artikel 03&lt;/font&gt;&lt;/h1&gt;&lt;div style=&quot;font-size: 22px&quot;&gt;&lt;font color=&quot;#808080&quot; style=&quot;font-size: 22px&quot;&gt;Veröffentlicht am 01.01.2021&lt;/font&gt;&lt;/div&gt;&lt;p style=&quot;line-height: 120%&quot;&gt;&lt;font style=&quot;font-size: 15px&quot;&gt;Lorem ipsum dolor sit amet, consectetur adipisicing elit, sed do eiusmod tempor incididunt ut...&lt;/font&gt;&lt;/p&gt;" style="text;html=1;spacing=5;spacingTop=-20;overflow=hidden;rounded=0;spacingLeft=0;spacingBottom=0;verticalAlign=top;labelBackgroundColor=none;opacity=70;" parent="1" vertex="1">
          <mxGeometry x="320" y="450" width="680" height="120" as="geometry" />
        </mxCell>
        <mxCell id="zXE36dw8NgoIa7MhYFlX-35" value="&lt;font color=&quot;#ffffff&quot;&gt;Impressum&lt;/font&gt;" style="rounded=0;whiteSpace=wrap;html=1;strokeColor=none;fillColor=#32435B;" parent="1" vertex="1">
          <mxGeometry x="-1.0599999999999996" y="1210" width="1401" height="40" as="geometry" />
        </mxCell>
        <mxCell id="D3AVguaPXxd2OEuv3srP-8" value="&lt;span style=&quot;color: rgb(0 , 0 , 0) ; font-weight: 700&quot;&gt;Kultur&lt;/span&gt;" style="rounded=0;whiteSpace=wrap;html=1;labelBackgroundColor=none;strokeWidth=2;fontSize=40;fontColor=#FFFFFF;opacity=90;strokeColor=none;fillColor=none;" parent="1" vertex="1">
          <mxGeometry x="80" y="160" width="340" height="200" as="geometry" />
        </mxCell>
        <mxCell id="D3AVguaPXxd2OEuv3srP-19" value="" style="verticalLabelPosition=bottom;shadow=0;dashed=0;align=center;html=1;verticalAlign=top;strokeWidth=1;shape=mxgraph.mockup.graphics.simpleIcon;strokeColor=#999999;" parent="1" vertex="1">
          <mxGeometry x="40" y="650" width="240" height="160" as="geometry" />
        </mxCell>
        <mxCell id="D3AVguaPXxd2OEuv3srP-20" value="&lt;h1 style=&quot;font-size: 22px&quot;&gt;&lt;font style=&quot;font-size: 22px&quot;&gt;Artikel 03&lt;/font&gt;&lt;/h1&gt;&lt;div style=&quot;font-size: 22px&quot;&gt;&lt;font color=&quot;#808080&quot; style=&quot;font-size: 22px&quot;&gt;Veröffentlicht am 01.01.2021&lt;/font&gt;&lt;/div&gt;&lt;p style=&quot;line-height: 120%&quot;&gt;&lt;font style=&quot;font-size: 15px&quot;&gt;Lorem ipsum dolor sit amet, consectetur adipisicing elit, sed do eiusmod tempor incididunt ut...&lt;/font&gt;&lt;/p&gt;" style="text;html=1;strokeColor=none;spacing=5;spacingTop=-20;overflow=hidden;rounded=0;spacingLeft=0;spacingBottom=0;verticalAlign=top;labelBackgroundColor=none;opacity=70;" parent="1" vertex="1">
          <mxGeometry x="320" y="670" width="680" height="120" as="geometry" />
        </mxCell>
        <mxCell id="D3AVguaPXxd2OEuv3srP-21" value="" style="verticalLabelPosition=bottom;shadow=0;dashed=0;align=center;html=1;verticalAlign=top;strokeWidth=1;shape=mxgraph.mockup.graphics.simpleIcon;strokeColor=#999999;" parent="1" vertex="1">
          <mxGeometry x="40" y="870" width="240" height="160" as="geometry" />
        </mxCell>
        <mxCell id="D3AVguaPXxd2OEuv3srP-22" value="&lt;h1 style=&quot;font-size: 22px&quot;&gt;&lt;font style=&quot;font-size: 22px&quot;&gt;Artikel 03&lt;/font&gt;&lt;/h1&gt;&lt;div style=&quot;font-size: 22px&quot;&gt;&lt;font color=&quot;#808080&quot; style=&quot;font-size: 22px&quot;&gt;Veröffentlicht am 01.01.2021&lt;/font&gt;&lt;/div&gt;&lt;p style=&quot;line-height: 120%&quot;&gt;&lt;font style=&quot;font-size: 15px&quot;&gt;Lorem ipsum dolor sit amet, consectetur adipisicing elit, sed do eiusmod tempor incididunt ut ..&lt;/font&gt;&lt;/p&gt;" style="text;html=1;strokeColor=none;spacing=5;spacingTop=-20;overflow=hidden;rounded=0;spacingLeft=0;spacingBottom=0;verticalAlign=top;labelBackgroundColor=none;opacity=70;" parent="1" vertex="1">
          <mxGeometry x="320" y="890" width="680" height="120" as="geometry" />
        </mxCell>
        <mxCell id="MQ-9sK84jNQ8UJqBeMkE-1" value="Suche" style="strokeWidth=1;shadow=0;dashed=0;align=center;html=1;shape=mxgraph.mockup.forms.searchBox;strokeColor=#999999;mainText=;strokeColor2=#008cff;fontColor=#666666;fontSize=17;align=left;spacingLeft=3;" parent="1" vertex="1">
          <mxGeometry x="1140" y="95" width="220" height="30" as="geometry" />
        </mxCell>
        <mxCell id="MQ-9sK84jNQ8UJqBeMkE-2" value="" style="verticalLabelPosition=bottom;shadow=0;dashed=0;align=center;html=1;verticalAlign=top;strokeWidth=1;shape=mxgraph.mockup.graphics.simpleIcon;strokeColor=#999999;" parent="1" vertex="1">
          <mxGeometry x="530" y="160" width="340" height="200" as="geometry" />
        </mxCell>
        <mxCell id="MQ-9sK84jNQ8UJqBeMkE-3" value="" style="verticalLabelPosition=bottom;shadow=0;dashed=0;align=center;html=1;verticalAlign=top;strokeWidth=1;shape=mxgraph.mockup.graphics.simpleIcon;strokeColor=#999999;" parent="1" vertex="1">
          <mxGeometry x="980" y="160" width="340" height="200" as="geometry" />
        </mxCell>
        <mxCell id="MQ-9sK84jNQ8UJqBeMkE-4" value="&lt;span style=&quot;color: rgb(0 , 0 , 0) ; font-weight: 700&quot;&gt;Sport&lt;/span&gt;" style="rounded=0;whiteSpace=wrap;html=1;labelBackgroundColor=none;strokeWidth=2;fontSize=40;fontColor=#FFFFFF;opacity=90;strokeColor=none;fillColor=none;" parent="1" vertex="1">
          <mxGeometry x="530" y="160" width="340" height="200" as="geometry" />
        </mxCell>
        <mxCell id="MQ-9sK84jNQ8UJqBeMkE-5" value="&lt;span style=&quot;color: rgb(0 , 0 , 0) ; font-weight: 700&quot;&gt;Lokal&lt;/span&gt;" style="rounded=0;whiteSpace=wrap;html=1;labelBackgroundColor=none;strokeWidth=2;fontSize=40;fontColor=#FFFFFF;opacity=90;strokeColor=none;fillColor=none;" parent="1" vertex="1">
          <mxGeometry x="980" y="160" width="340" height="200" as="geometry" />
        </mxCell>
        <mxCell id="MQ-9sK84jNQ8UJqBeMkE-6" value="&lt;h1&gt;&lt;span&gt;Aktuelles&amp;nbsp;&lt;/span&gt;&lt;/h1&gt;&lt;h1 style=&quot;font-size: 15px&quot;&gt;&lt;span style=&quot;font-weight: normal&quot;&gt;&lt;font style=&quot;font-size: 15px&quot;&gt;&lt;br&gt;&lt;/font&gt;&lt;/span&gt;&lt;/h1&gt;&lt;h1 style=&quot;font-size: 15px&quot;&gt;&lt;span style=&quot;font-weight: normal&quot;&gt;&lt;font style=&quot;font-size: 15px&quot;&gt;&lt;br&gt;&lt;/font&gt;&lt;/span&gt;&lt;/h1&gt;&lt;h1 style=&quot;font-size: 15px&quot;&gt;&lt;span style=&quot;font-weight: normal&quot;&gt;&lt;font style=&quot;font-size: 15px&quot;&gt;&lt;br&gt;&lt;/font&gt;&lt;/span&gt;&lt;/h1&gt;&lt;h1 style=&quot;font-size: 15px&quot;&gt;&lt;span style=&quot;font-weight: normal&quot;&gt;&lt;font style=&quot;font-size: 15px&quot;&gt;&lt;br&gt;&lt;/font&gt;&lt;/span&gt;&lt;/h1&gt;&lt;h1 style=&quot;font-size: 15px&quot;&gt;&lt;span style=&quot;font-weight: normal&quot;&gt;&lt;font style=&quot;font-size: 15px&quot;&gt;Lorem ipsum dolor sit amet, consectetur adipisicing elit, sed do eiusmod tempor incididunt ut labore et dolore magna aliqua&lt;/font&gt;&lt;/span&gt;&lt;span style=&quot;font-weight: normal&quot;&gt;.&lt;/span&gt;&lt;br&gt;&lt;/h1&gt;" style="text;html=1;strokeColor=none;fillColor=none;spacing=5;spacingTop=-20;whiteSpace=wrap;overflow=hidden;rounded=0;" parent="1" vertex="1">
          <mxGeometry x="1120" y="520" width="200" height="270" as="geometry" />
        </mxCell>
        <mxCell id="MQ-9sK84jNQ8UJqBeMkE-7" value="" style="endArrow=none;html=1;" parent="1" source="MQ-9sK84jNQ8UJqBeMkE-6" edge="1">
          <mxGeometry width="50" height="50" relative="1" as="geometry">
            <mxPoint x="1270" y="610" as="sourcePoint" />
            <mxPoint x="1320" y="560" as="targetPoint" />
          </mxGeometry>
        </mxCell>
        <mxCell id="MQ-9sK84jNQ8UJqBeMkE-8" value="" style="endArrow=none;html=1;entryX=1;entryY=0.148;entryDx=0;entryDy=0;entryPerimeter=0;strokeWidth=2;" parent="1" target="MQ-9sK84jNQ8UJqBeMkE-6" edge="1">
          <mxGeometry width="50" height="50" relative="1" as="geometry">
            <mxPoint x="1120" y="560" as="sourcePoint" />
            <mxPoint x="1000" y="690" as="targetPoint" />
          </mxGeometry>
        </mxCell>
        <mxCell id="MQ-9sK84jNQ8UJqBeMkE-9" value="" style="verticalLabelPosition=bottom;shadow=0;dashed=0;align=center;html=1;verticalAlign=top;strokeWidth=1;shape=mxgraph.mockup.graphics.simpleIcon;strokeColor=#999999;fillColor=none;" parent="1" vertex="1">
          <mxGeometry x="1160" y="585" width="120" height="80" as="geometry" />
        </mxCell>
        <mxCell id="_LLoPAO4SvOWdNi-FfkY-5" value="" style="shape=image;verticalLabelPosition=bottom;verticalAlign=top;imageAspect=0;aspect=fixed;image=data:image/png,iVBORw0KGgoAAAANSUhEUgAABMQAAAFDCAYAAADVvdI9AAAAAXNSR0IArs4c6QAAAARnQU1BAACxjwv8YQUAAAAJcEhZcwAAEnQAABJ0Ad5mH3gAAAAGYktHRAD/AP8A/6C9p5MAAJnMSURBVHhe7N0FfJPX+gfwJ1p3A1pchts25n7n7pfJ3Z39J2yDMbwt1kLxMbc7drdd5szdN8YYMNyhSN29jcv/PSeHtiFJm6SWNL/vPmd9n3PevE1KJXlyznNkVgkBAABAt1X67bs0Y72B5vY4QAMezxK9AAAAAACBSy4+AgAAAAAAAAAABAQkxAAAAAAAAAAAIKAgIQYAAAAAAAAAAAEFCTEAAAAAAAAAAAgoSIgBAAAEOG1eNuW9tYI3XcEx0QsAAAAA0H0hIQYAABDgLAYdpR9M4M1i1IteAAAAAIDuCwkxAAAAAAAAAAAIKEiIAQAAAAAAAABAQEFCDAAAAAAAAAAAAgoSYgAAAAAAAAAAEFCQEAMAAAAAAAAAgICChBgAAAAAAAAAAAQUJMQAAAAAAAAAACCgICEGAAAAAAAAAAABBQkxAAAAAAAAAAAIKEiIAQAAAAAAAABAQEFCDAAAAAAAAAAAAgoSYgAAAAAAAAAAEFCQEAMAAAAAAAAAgICChBgAAAAAAAAAAAQUJMQAAAAAAAAAACCgICEGAAAAAAAAAAABBQkxAAAAAAAAAAAIKEiIAQAAAAAAAABAQJFZJeIYAAAAfITVZCJt3mERtU311t9ozvYQmpu0n3pce4/obaIryqGpX5Xw46ev7UVBSSn8uLOoYhJIFR0vIgAAAACAjoeEGAAAgA8y1dfQA1mfiqh7W3VND4o963IRAQAAAAB0PCyZBAAAAAAAAACAgIKEGAAAAAAAAAAABBQkxAAAAAAAAAAAIKCghhgAAIAPclVDLD1hj/R/mS2QZJSNEEf2uuo8Jj1eOlfWdC5JTzUyykeKwBFqiAEAAABAZ0NCDAAAwAe5Soil3jmeKDxKRETyn96ljOweImqSeuc46bxoEUl/8H9+nzIPJ4qoSdodY8kaESOiFs6Trmdtfr1fPqDMQwkispd2XihZh58hIuncwzso8+cqETlCQgwAAAAAOhuWTAIAAAAAAAAAQEBBQgwAAAAAAAAAAAIKEmIAAAAAAAAAABBQkBADAAAAAAAAAICAgoQYAAAAAAAAAAAEFCTEAAAAAAAAAMApq9lM2rwjZCgvEj0A3QMSYgAAAAAAAADglKm2km6c8x/KeX2R6AHoHpAQAwAA8COykuNE+YebmlEvRuzJiu3Pkxl0YuQkJTn25xldnFd08vW0YsCRrLbC7lyqKRMjAAAAAAC+QWaViGMAAADwEab6Gnog61MRdW+rrulBsWddLiIAAADwJcaqMrr2iVX03Mg6GjzzedEL4P8wQwwAAAAAAAAAAAIKEmIAAAAAAAAAABBQkBADAAAAAAAAAICAgoQYAAAAAAAAAAAEFBTVBwAA8EGuiuqnnRtMpA4RkfSH/PA2ysjrL6ImaecGSeeFikg6L3s7ZeT2E1ETt887RzovqNl5Lj6vN1BUHwAAwHehqD50V5ghBgAA4EesfYeTdfDYxkZBTcmx5k4+z9osmWWnzzD3zut30vVCwsUAAAAAAID/QUIMAAAAAAAAAAACChJiAAAAAAAAAAAQUJAQAwAAAAAAAACPafOOkL4kX0QA/gUJMQAAAAAAAADwiNVioRvn/IeOrJ4hegD8CxJiAAAAAAAAAAAQUJAQAwAAAAAA8DGaY/tJX1pAVpNR9AAAQHtCQgwAAAC6lKG8mOoPbLdrmuMHxCj4ipw1WdK/y0ERAUBHq/zzW3romR/p3nnv0PFXF1Lhuleo/NdPqXb3X6QrOEYWo0GcCQAA3pBZJeIYAAB8kEWnJVIoSK5Six4IBKb6Gnog61MRNUlLOUoymUxEEp2GMspGiKCJw3l66bzSjj+vvWQOq6CUu6aKCHxBzn8yKeEft1Bov6GiBwA6UuGHL9GcHaEicm5+3xxSxyWJ1oPUsdLHxGQ8Z4B2Zawqo2ufWEXPjayjwTOfF722GmJX3pNKq1JyaHjWO6IXwH8gIQYA4OOOv7qAwgaNooSLbxI9EAhcJcQCBRJivgcJMYDOVfz5GzRrk3cLepAog/aEhBh0V1gyCQAAAAAA4GPk6mBx5Ln5OX1pzrZgmvZDDT3x3kF6+MXf6b7572LpJQBAM0iIAQAAAAAA+Bi5OkgctR/PEmV6cSsIJDU7/6TiL98mU1216AHovpAQAwAAAAAA8DHyIO9niHnKeaLsPSTKAlDlH1/Tv9/fx5dJAnR3SIgBAAD4kfSUI5Te+1hTS9grRuylJ7t3HgAA+CaZqvMSYq4gUQYA3RkSYgAAAH7EcsGtZLnqvsZGUXFixJ7lwlvszrNGJ4gRAADwB/Kg9l8y2V6QKAOA7gAJMQAAAAAAAB/TlqL6XQWJMgDwJ0iIAQAAAAAA+Bh/TIi5gkQZAPgiJMQAAAAAAAB8TGcW1e8qSJQBQFdCQgwAwMewba5LvnmH9GWFogcAAAACTXeaIeYpJMoAoDMgIQYA4GPMOg3N/MNI5rpq0QMAAACBRq723aL6XQWJMgBoT0iIAQAAAAAA+JhAniHmKY8SZQYkygDABgkxAAAAAAAAHxMINcQ6mtNE2QIkygDABgkxAAAAPyLL2U+yIzsbG+m1YsTeyefJ9BoxAgAA/kCmUNLcpP0igvaERBkAMEiIAQAA+JHMP7SU+WNlY8vI6y9G7GX+obM/L7efGAEAAH+BZZOdC4kygMCChBgAAAAAAIAPwrJJ3+AsUXbshTTKeX0xVf/9qzgLAPwNEmIAAAAAAAA+CDtN+q6M8pE072gyGatKRQ8A+BskxAAAADqZvrSANEf3tdi0uYfF2YGJLUVx9nVxp7GvL7SPvLdX0I7/u4i38t8+p4MZ/9cYa44fEGcBQEfBkkkAgI4js0rEMQAA+AB9WSE9tPoHevH+0yl0wHA6/uoCChs0ihIuvkmcAf6u5Ou1NHODSUTQ3paeo6Ckq+4SEbTF8Vfm08N/OK+Ts27endLvppEiAoCOUPz5GzRrE+Yw+LLlF4ZQwqW3icj/saWgj/xlpk8W3UchfQbzPmNVGV37xCp6bmQdDZ75PO9jrBYLXXlPKq1KyaHhWe+IXgD/gd+uAAAAAAAAPggzxAAAOg4SYgAAAAAAAD4INcQAADoOEmIAnJXMmnr+EaCzVW36gQo+eKGxlf3wAeumij++4rFFp6GG7D1257BmNWHJHQAAQHcmwwwxAIAOg4QYgNVKBe+/wOuksI8sBuhMhopSSt0Z3tjS9sbw/vSDiTxeWDKcb/fd/BzWrFYLPw8AAAC6JyyZBADoOEiIQcCzmk1kKC/ix+wjiwEAAAAAupo8CEsmAQA6ChJiEPBkShUlXnYbhfQeTPGX3spjAAAAAICuhhliAAAdBwkxAIlZr6M524PJqtOKHgAAAACAroWEWGDRFRwjbe7hLm2mhlp+X/RFuY197H4xFm2D3bm6vGxbv0Fv13+imeqq+TiAr5JZJeIYIGDV7tlET7x7gJ69fQhFjj5L9AJ0jpKv19LMDZ4v1V0zfyLJVWoRgT/x9t8c3LP0HAUlXXWXiKAtWH3Nh//Qi8jeunl3UtigkSICgI6gzT9Cj7z0h4jAFy2/MIQSLr1NRG2z46FLaJZmgoj835sTR0p/j+8UEYDvwQwxAIBOpC04SvnvPkv57zxDeWtX86bJOShGPcN2mjxxDXZNix4zHAEAALoTzBADAOg4mCEGIMEMMegshvJi/v1Wt38rLcgfKHrbbslZMkq8/J+YMeYnMEOsY2GGmHu0+Ufp2ItpInJOX1ZIs3XO/y6uSDxA8qAQETkK7tmPBjy+WEQA4A1jdTk9uPwrEYEvwgwx1zBDDHwdZogBQJerP7STDi97IiB2+FTH96D4C68nRUiY6GkfUePORTIMADxi0Wloal7fFpurZBgzrXSo09ucaFpRWwYAvIcZYgAAHQcJMQDocuzdz8d3h5HVYhY9AAAAAICEGABAx0FCDAAAAAAAwAfJlEqam7RfRAAA0J6QEAMAAAAAAPBRmCUGANAxkBCDgKEryiFt7mGnzVhZys8xVJbY9ZtqK3k/AAAAAEBXkAcFiSPX0uN20yzlL/RUwzqaWv8hzTB/Q+kxO8QoAAA4g4QYBIyy7z+gR17502l76jtb4mvaDzV2/SVf/Y/3Q+cr+/lj0uQeEpH/sJrNZKqrbrWR1SJu0T7Mmnqnn6d5YwW0AQAAwL+0NkMsLWYH1R3YJrXt/A1gfXEeNRzbT9U7N9DskA3iLAAAOJnMKhHHAN1a3pvLKf1Qoojc9/Kj51Nwcn8RQUeo2vwTTXzuR/p6zXySq2zvgm5/4ALqdfNDlHTlHTz2F7rC4/TwC7+JyLcsOz+IEi//p4igK5V8vZZmbuj+u6p2laXnKCjpqrtEBK40ZO+hmxesFVH7W9nzCI1Y9oGIAMBbhR++RHN2hIrI0ZNVa8lQUSIie+x5VdTYsymzapzogfa2/MIQSrj0NhG1zY6HLqFZmgki8n9vThwp/T2+U0QAvgczxABaUfX3L+IIoHWKkDBaeq6S5vbwrQK4i8bUU3DPviICAAAAfyEPcj1DLDV8My/54YrFqCd9WYGIAACgOSTEAFqhObpfeiJRKCKAlqliEijpyjt9rgBu9KkXUuTos0QEAAAAXYGVL7CajCJyT0vPKUyaWqJW1vuY6+vEEQAANIeEGAQOL1cHZ5SPpOrNP5NFr21Ta/XZCgAAAAB0P9Jz0NLvP6BdT1xNW+85i7bePYEOLLif6g/vEie0TK5uqai+THxsgcyNcwAAAhASYhAwjDXe7xg5808z3bfwgzY1cwPenQMAAAAINLn/XUo5ry8ifUk+j60WC9Xt+5sOzL+PanZt5H0tkbUwQ0wZEU0yecsv6ZSRMeLIO2nR22kGfU/TDJ9LH3+gtJjtYgQAwL8hIQYAAAAAANAB6g9sp5Jv3xWRPbZ08vjL88lqbnmTlZaWTC6qOZWCew0QkSNlaAQFxfcQkedmyn6k6h3r+SYc2txs6eNuqtn2B82U/yTOAADwX9hlEgLG0Wdm0cLSYSLqfK/PuZEUYZEigua60y6TJxx/ZT7Nz/Wd3UlfuO80Chs4QkTQ1bDLZMcKlF0mjTUVVPz5f0XkOWN1BT26ueOeBmYFb6T4868VkecUYRHU66b/ExGAf8p9Y4nLhNgJQ+e9ThHDTxORo5qdG2jyB9kicpQev4u0+UdJV3DUrkIImxkWMXgUZda4vnZLZgX9TnX7tjovOyKTUeSI0yhLd57oCFzYZdI17DIJvg4zxAAAAAD8kKm2mh78vtzr1pHJMGa27iynn9fdVvbDh+JKAP7LUF0ujlxjyemWtLZRT0b5aFoRfANFjT2X1LFJFNZ/KEWOPIOeSbzX62QYo8s74jwZxkj92ryjIgAA8E9IiAEAAAAAAHSAoPie4si1oB4p4sg5d3euXlQ3gRShYbRMcRVl6c4Rvd5hs86MdTUico4l5dPjdosIAMD/ICEGAUMmxw47AAAAANB54s6/hj0JFZGj0D5DKKz/cBE51/Iukx2ntc0prWwHdVnHzjQFAOhIqCEGASP3zWU091CSiDofaoi5hhpiHS+QaohZdBral+rb9aNM9TVk0WtF1PFC+51CS4wXiqj7C5QaYtq8I3TjnP+IqPtZGv43jXnpBxEB+K+iT9dQ/rvPiKgJq5PH6oeF9j1F9DinLy2gh575UUQtm6b7lC+fbA+TS9aQqa5aRI7YDpfPJN0nosCFGmKuoYYY+DokxKDbYS80nSn86CWae7j1aesd5dXJ/yB5aLiIfJdcqSZ5cIiIOgcSYh0vkBJiZk09Xf3QIhEBs7pvPi2x/kNE3R8SYt0DEmLQnVRv/Y2Kv3yLNMf2kyI0glQxCTToyeWkdmNJpbG6nB5c/pWIWtaeCbFZyl+p7sB26cjJy0UZUcTQ8QH1ZosrSIi5hoQY+DokxKBbsVosdG/62yICbyw9V9XpSSh/SYhZjHq+7bg7yn7+mBYWDhFR11txaTQFJbVco4RhT8yDEnqJyD8hIeYICbHuCQkxAP/FZoyl/PMJ6dVY6yU92N+1+xetE1HL2jMhxsywfEuanINkNZtFD7vLCgrtN4SWKa4UPYENCTHXkBADX4eEGHQrSIi1HRJirhlrKujBZV+KqHtaeWUCxZ17lYj8ExJijpAQ656QEAPwX1VbfiZVVByFDxkjelyzmkx077y1IrIVvLeYTUQmszRolY6NRNJzYJLLSV9SQME9+5BMpaZF1ePFLdpmmv4z6dIKMhv10vO0YFLHJtKiutPFKCAh5hoSYuDrUFQfAMBNiuAwWn1Db8oYUiJ6updVVyXyWlMAAADQsaLHnks1O/4QkXOsDEjNjg1U/OWb9FTdhzSl7E16ouBlqtz0M1Vv+ZWqt6+naukatbs3Ue3eLfyjvjSfanb+SdV//0qPHVlFj+c8L93mFXqy8n80TfsJzZT9QLND/6T0uJ3is7Qsje0iabbQMtU1tDL0ZlquuhrJMADoNpAQAwBwkzwomKJPv5iU0fGip3uJkp6ch6QMFBEAAAB0FDaDi61saL4U0VBRQqU/fEhHn5tNuyZfS9vvP58OZT1K+e8+S4aqUulcIylCIvgMMNvulMMofOBICh8ymiKGjedNHd+DwgaNpLC+QyioV39eq0weHEpmbT3pCo9R/eHdVLvrL6rc8gtNLn2Dpuk+p9lB6yk9bpe4F/aMNeWkio4TEQBA94Ilk9CtYMlk22HJZOuKPltDszcrRNR9vD7nJr7jla+r3f0Xlf/+hYgcWc0mmrQF7/c0lxW8kSd0XVFK/+7LldeIyP9hyWT3gCWT0N3V7tks/Rxnk6m+mqq3/k6a4wf4EkiWxApjiS6W2GJNOi54/zmam916jc+Waoilxe0gi1ZDJk09mRrqyFRbSeaGemlEejmoUJA6Ko7XElXFxFFmxVh+m6c0H9PK0Jv4MTiHJZOuYckk+DokxMBv1R/eRRVOXhTPO9p64XBwbW7Pg6QICRNRk773z5H+33rhV28gIeYb/CUhVvrtu/Svtc7fyQbvLAnbQqvj7haR/0NCrHtAQgy6gq4oh+r2byOymCls0KgOKSVg1jZQxfovqfS790mbf0R6eiWn8MGjKPrUC3gL6T1InNkkf+3TlLYvVkSueVpUPy16G5lqKslYW0mGyjK+gZBMoSR1XCIpI+OkO2ukZQr/ri3a0ZAQcw0JMfB1eAsd/JbVoOfJr5MbtM3ColOcf12ROgcAAIBuiiWCjr00l3Y/eT0df2U+HX8tg/bOvI0OL32cTA214qy2YbPBcl5fRDsfuVT6uJgvm4waczaNee5rGpbxFvW84X6nyTBGrnY9y7ctMqvH801XVkbcRlHjz6eIoeNJHZNAhopSasjeTbriPJpB37tcUgkA4M+QEAMAAAAAgICW82oGlf/6GV+y2Fz1tt/pyMqpDv2e0BzbT4cWP0J7pt1M5b98RjGnX0zDF/2PRix5j5L/+TjVZ+8WZ7omV9tm0HekzIpRtMR0Ia2KnkjR484jFauZKpNRQ/YeXrx/hukrSot1rxg/AIA/wJJJ8Ft1e7fQ4+/sExF0tP9m/os/KWoP7F3YwnWviohIV3icHtuupteuSOTT9Jnir/5HEUPHUdjAETxuThkeTT2u6brlXVgy2fFYkeHdT14nIntsqcls3VkigvaQaf6Oz1RwJnzACMoynC8i/4Alk90DlkxCZ9HmH6U9025qMek1ZPaLFDX2HBG5R1+STwUfvEAVG76VnrtEUo9r76GEi28iZUS07QQh/51nKOWOySJyjpULmLHeICLXPF0y6coM+oGUIaGkCI0kY3UZaaXnaqa6apJLfytCkgeQOqk3T6C1VWrUVr5k02JiGwaEkioyljIqRotR/4Alk65hyST4OiTEwG+xF8XGmgp+XPTxq7SgYDA/hvaz9FwlRY07jx8H9+jDP7YHtvTgmoezROS5ZTG7afSzX4qo8yEh1vFYYfwr/50uIuhKqwcU0RLTRSLyD0iIdQ9IiEFnKf3+A76UsSU9r7+v1aTVCSxxVLjuFb5jpEwh/T668k5+e0VouDjDHntekfCPW0gZFil6HJX//DFN+6lORK61V0LMWTH92erfSZN/hEy1VdJjiaCwAUMpS2d7nuiNaYYvSJd3lKzWpp02WR3b8MFjaLHmTNHj+5AQcw0JMfB1WDIJfov9wWRJGtZkMnwrdwT2xOzE1xigM8nkCvpw9s1O22uX2L+zDm2XFbSBnhlU6rQpwqPEWQAA3RN7E6Y1bAaTO6r//oX2PHUTlX73HsWffy2NWv0FpUx8wmUyjIk94x9UtelHETkn66AaYs7MCf3L6QZLbLbwM4n3Uvjg0WQ1Gah27xaaWvMen+Xlqenmb0ibe9guGcawN7zrDvzNi/0DAHQ0ZBEAAMD3yGQUMfw0py0ICdp2J1Oq+QsdZ21R9XhxFgBA9+SsPMPJwgeNFEfOmRvq6NgLaXR4+RRee2v4kveo30PzSB2bKM5wjf1d0xfnicg5d2qIpcWxWmRtL29hqCwidVwPETlaav0HRY85h4J79iV9eRHV7vyTZsp/EqOtYwX6tfnZInJkMRhIV5wjIgCAjoOEGAAAAAAABKzwIWMocsTpInIUnNyfYiZcIiJHNbs20p7pN1PFhq+p100P0vDFaym07yli1D2q2EQyVJaKyJE8qPUZYjI220retpd36TE7pP/LKbNyjK3DhYyqsbQy9GaKGn0WyYJCqP7wTnqq/iNKd6PovklbT1ZjyzPuTDXV4ggAoOMgIQYAAAAAAAFtwORlFDbIsUh8aJ8hFDn8ND5z2YHVSoUfvcJ3kJQHh9KwhW9R8u2PkUypEie4L/aMS6nqL9c18+RuLJlkG9LI2pgQ01e0PDvsZIsbzqSoEadTcFJv0hXn8mWUqRGbxKhzMjdeglqtFnEEANBxkBADAAAAAICApoqKpeGZb9Ggp57mm3IkXv5PGvD4Yr70scd19/KdIKlZkobtmH3kudlU8OGLFHfe1TRiyfsU1sqyypaoYuLJWF0uIkduJcQsljbX1TXrtLS44QwRuSejcgytDL+Vz7SzSLev2fUXzVT8IkYdsd0kT+wq7ooS9SsBoBMgIQYAAAAAACCTU8yEi6nPPdOp732zKe7cq/kukUGJyRR/4Q1U8MGLfFYY2+X84MIHqfLPb/mMsAGPZrpV46s1wb36ka7gmIjsuXV9q4VvSuOt2UHr25SIWmq5hCJGn0nyoFCqP7SDZli/EyP2MipGU0hyPxE5IT0GbOgEAJ0BCTEAN6Un7KG05CO8pScdEL2O0lLEOT0Oih7X0npl267Z65DocZTe85DtetLHlqQl7G12//aLXkeN5/Rw/Rg6ikWvpWMvzaXcNVmixzvGmkp+HVft+CsLxJkQKF45S0mvX9mLlkU51i55Yayej63s4VjA99lTqvjY6v6FoqfJ033z+dhzw2pET5MViQf52IvjHXcmWxqxjY+9fI7ji5cs1R987LV/xIqeJpmm7/gYa5lmxxcRr10Sw8ey1OtFTxP2udjY0sjtoqfJi+ON9Or5Ifw+AwCAd0J6D6To0y6i3LdX0r7UO0mTc5AGTVnOa4Y5XU7pBVanrGqz8+L08qAQceQamyFGCu9f3hmqykkdkyAi7yyuO50iR5xGqogYaji6l6YZvhAjTdLidpDFaCB1vOPSTJlSSRFDxtCi+gmiBwCg4yAhBuAmq/RERHfZ3byZBjjWmDhBd+ld/BzjsNb/kOvPv8l27tiLRI8j/RlX8nP0Z14telwIDW+6f32Hi057aUn7G88xDjlV9HYei0FPj/xppEc3iw4vpVou4Ndx1cp/+0ycCYEiOHkAhQ8YRspQx23ig5P62MYiokVPkyDpyTgbc/YCQB0dz8eC4nuKniaq8Gg+5uwdbLZVPRsLTRkgepqw3RzZWJiTYstsmQsbY43NUjgZuw0bkykdE22h4vErgkNFT5OgpL4UlJAivTjB8hMAgDaRyajit8/5jpJD56+hmDMvFQPtQyE9lzNrG0Rkz50ZYm1ZMpkWvU36+6Lgs7faKrNqHEUMG0fq2CTS5h6mqQ3rKJ3vgGkr2q/JOSz9/exLT0ffQZEjJ/BNC4KSelNYv1P47pVLTBfycwEAOhoSYgAAAAAAAC3Q5B6iQ5kPkTwklFImPkGa4x0z65bVIWvI3iOiJi3VEEuP20WpMdvIajI4fUPFHfryQgpO6CWitsuoGEPhg0dRUI8+pC/KoYZj+ygtais15B6m0JSBtKjOtqtnlu5cWhlyI62KuJWWKa+mzJrOf8MWAAIXEmIA7rISKapKeCOT662i5ZW2c2QGnehxTVZXabueTiN6HMk0dbbraRyXbdlpdv9kLdy/xnOMetEDAAAAAK7oS/JtO0kGBdPQua9T4mW38xm5FRu+EWe0n6hx51L19pOWxlstpC8r5DW52GyrKRX/o8kla2hy6Rs0uXgN1R3YTg3Z+0hXcJy0edlNY1KbWvseTTd+RbNUv1JatOOyeiY9fhdZDQbKrDlN9LSPjPLRtCr8Fj4DTF9aQLX7/qbQPoMps3q8OAMAoGshIQbgLhmROSaJN2phO21LrO0cqzu7AUXE2q7nZJnTCdbQCNv1QltZ7tTs/llbuH+N56jaXvwVAAAAoDtjOz8eXPwIWY1GGjLnJV5gn4k9+wpeG7V62+88bi9y6fmZ1Wzin7f8188oe9VTtH/evVTyzVqSyWSNS/2fSbqPnkm8l57pcR+tTriHVsfdRcG9+lJos7GIYadRcM/+PJFnqqul+uzdPEk2TfsxL6B/YhmjsbqSlFGOtS3bS1BiSuNyUH1ZgegFAOh6SIgBAAAAAACchCVwDmU9SsaqMho88zkK6T1IjNgkXHwT6YvzqG7f36KnbVgNsKotP1Pt7k10eNkTvPYq2/Fy2MI3qf/DC/jnz9Ke43JZoa2GWNMuk5kVo2hxwxl898cVwdfR6vh/UeTQ8aSKiidDRQnV7N1M07SfkKGyhFSRceJW7WtO2F/S1yiHIkdNIHVsImlzDtIs5S9iFACgayEhBgAAAAAA0JzVyneuZksQB01dSeFDxogBe0lX3Un1B3dQw5G9osdzrEh/0aev0/70u0lz/ID0+VZQ5KgzKfGy20gd17QTI5vp1RKr1UIyRcs7XmZUjqEsw/m0MvwWihwxQbpmKJnqaqguexfNCdkgzmofs6Xr6cuKKKTPKZRZMZbCB40keUgE1R+WPlfoRnEWAEDXQUIMAAAAAACgmeKv/kdVm36klH8+QVFjzxG9zvW84X6q/vsX0uYdET3usRoNVPzl23wWmjq+Jw1b8F9KvlU6jutBMqWKLCfVe22psD5nNpNM3jRDrDVsBpnVpKeIEafxQvfaohyaUvE2zQ5ue2Jstvp3vuwztPcg/nmYjMqxFHHKWOmBKKnu4HZKjdrK+wEAugoSYgBukrFp6A01ttZCQXp5fa3tHINW9Lgm04hzWyqqr623neNiG+5Gze4fubh/MrI2niPTt170HwAAACDQ1B/YTvnvrKbo0y6iHtfeI3pbIJNR8m2PUvlvn/EC/O6o/Ot72j//XpKr1TR0wRsUd+5VPAl2QvT486lmq319stYSYmzJpNWDXSbZ7pQWk5kWVY+nxQ1n0tPRd1BYvyGkKzxGT9V94LIIf2vYkkhzQy2tCLqeMkQy7AS2u2TE0LE8Gahpw6w6AID2gIQYgJsyCgfT8g/28rb4b9c/Oss+tJ2TtcEgelxb9vlxfu6Sn6tEj6Ol35Xwc5Z+Wyh6nMvM6994/7K2q0WvvYyS4U3nbDKLXgAAAABgTHXVdOSZGXzG1oBHM3iyyy0yOaVMfIIXv2c1x1yxXX8m1e/fRkPTX+M7VsoUSjHaJGzgCGo4uk9ENnJ1yxsiWa1m6e66//LOWFlKQbEJIrJZVHcGPR17FyljEqj2wDaaKftRjLiHnW8x6GiZ6hrR44jVQQvpM4gM1eU0w/Kt6AUA6HxIiAEAAAAAQLfAZkmVfvce7ZtzB21/4ALaM/0WKlz3KlncnBmf++YyMtZU8jpeirAI0eselthKuWMKFX7yH574OlnN9vV0eOnjlHDJzdTn3lkkb2GXcUbBdhpvqBORdP3WlkxarNJ98CAh1lBDi3XnisjeUtNFFDX8VDJKj2Nq7fuUFrdDjLg2w/Idr2O2TH6l6HEtuEcfUkXGkCbnEKWGbxa9AACdCwkxAADwe5Wbf6LSnz4ifWWp6GlSs2sDH9MVHhc9TVgNEzZWf3S/6GnScPwAH2PvkJ9MW5zDx6p3ONZZMVaX8rGKTY7vqpu1dXys7PfPRU8Tq8XEx1gjs0n0Nin7/Qs+ZtY0vTg6oWLzj3zM4GRWQs3ODVS980/SFeeKHgCA7oklw7JXTqWcNVm8yD1LSmlzD1PBBy/Qgfn38l0jW1Ij/a6sWP8V9bz+XgrtN1T0eobN4mIzxQo+eNHu8xV9uobKpd/jQ1JfpsiRE0Rvy2LOuISqpL9vJyhaKaovfQUoo3y0OG4Z2/1RERwmIudYza9V4beQKiqO6vZvbzFxNd30FclVKlpGl4melrH7GTZwJD9m/1bp8bv4MQBAZ0JCDAAA/N6Tub3p8QMxNFt/tuhpMrVoEB+b2XCa6GkyrXw4H5tR7fgCYkbNWD42rczxRdEszQQ+NrWwv+hpMttwHh978niy6GmSSpfwscmH7ZeoMGmqK/kYa+z4ZJOzE/gYu8bJ2OdiY3OMju/0s/vIbjuzwb0XYAAA/qr0+/d5cXtn2PLDgveeE5Eji15LOa9lUHCvftTzpgdFr3cUIWG8plj+u8+SWVNPx15MJ4tBSwOfWMrH3BXcsy/pinJE5MYMMQ8YKoopKL5pB8uWLLX+g8L6D6P67D00O2i96G0y3fC59LjCaYn5YtHjHlZPLLTfKWSsqyJdsXu11wAA2hMSYgAAAAB+gs0w2T/3Ht6OPj9H9HZPxtqqxsfKWvOlYwDOlP/6mThyrnz9l2wamYjssVlk+vIi6vdgOslVLdfqcocyIpqSrphIux67kiJGnE7Jt01yvx5ZM6qYhMaaZK3VEHNXWoxt+SObAeYuVnQ/4pQxpMnLplmqX3kfm9U1TfspKSPjaInxAt7nqWWyy0kVFUvagqNeF/EHAPAWEmIAbkpP3Etzhlfzlta36d26k6UOr7Gd07/1d7pST6ng56YOKhY9jlIHl9rOGeK6QCuTlrS/8f6l9nZcGsakJ+xpOqcvlk8BAPgbg/SC/cljvXh7qnCA6O2e0uSXNj5W1iwmoxgBcM5QWiCOnGNJVVN9rYia6MsKqeTb9yj+gusoYrjjbGJvsJpluW8soZQ7JpM2L9tlIq41sWdeSpUbv+fH8laXTLrHUFlM6jj3Zoc1l1lzKkWcMo50hTk0U/4TaXIPS9dJoizdOeIM74T2HUJWo5G0hcdET+vmhG6kGfQ9zZT9QKmRf4teAADPICEG4CarOpgMZ1zFm7nXINHrSH/GFfwcU78Rosc1w7iLbOcOOVX0ODKOOIufYxzhuBTMTnBo4/2z9HRcxsVY5YrGc8x9h4leAP+3LGoHLU/YT4tkjktllob/zceylPbb1zNLQjfZxoL+FD1NstQb+NiSEMeaKYsVv/GxZRFbRU+TRfSTbUy6TydbZP6Bjy2P3SN6mmQYv7GNSY0dn4zdho2xa5ys6fH/LHqasPvIxth9BgDozpTRceLIOXlQCCnDo0TUpPCjl/nujGyZY3uwGg10ZPU0SrjsNkr4xy080VbwwUti1DN8hlh1OT+Wt9OSSbNWw2d8eSOzaiyFDR5FDcf28xpkizVniRHvLdacTeqEHqQvyqPUiC2i17nU6G30ZPlbVLNrIzVk76H6w7upevt6eqrhI0qPQx0yAPAMEmIAAOD3ki69jfrc9hiF9OgteprEn3M1HwvtP1z0NIkZdz4fixpxuuhpEjnsVD4We9qFoqdJWN+hfCz+vGtFT5OgxBQ+1uOKiaKniUJ6IcbGkm90rE8jlyv5GGvOtuBPvuEBPqaIcHwx1+PyiXwsKMGxblncudfysbB+p4geAIDuKfaMS8WRc6F9BlPeO6t5IuUEXcExqvj9C0q49BavZk05sFrp2MvzKO68ayjmdFtNrZDegyj61Auo6JP/8NhTJ2qJtVdCTBkWKY48lxaznbT5Ryhy+Gl8Zh0rzt8eQlMGEsmsttl0LrAlmvUHd5BBJAgbSV9zXVEuaXIPiQ4AAPcgIQYAAAAAAH6P7w7ZZ4iI7LFk16CnnqaUiZNJX1pAeW+voJrt6/lukKxYfc8bHhBntk3xl29RUI/eFHv2FaLHJmzQSAobMoZKvnlH9LgvZsIlVLXpp3apIfaU9hNSxzpu7OKOtKitpMnN5skrNsMsXHpMbIdI1t9Wi+omUHCPvqQvL3aZZDNUlvGdQ13RFbc+wwwAoDkkxAAAAAAAwO/Jg0Np6Pw1fJkiO2ZkKjXFnXc1DV/0P1LFxJNMLqfYsy+n3ndPI0NVGVX+9T2f7aQM937W1Am1u/+iugPbKfmWh0WPvcgRp1NQYjKV/fyJ6HGPIiyCzJq6Ns8QS43ZRnK5gjIqxoge96VF/U2agqN8ll1m9Xjex5JYrP5X/ZG9lB63m/e1RVDP3nzjAV2J8zq8xtpKceSC1cp3rAQAcBcSYgAAAAAA0C2w5BHbKXL8mvU09pWf6NS3NtGAxxbzWlwnY8sl2RL1xCsmUsH7L/DZW2Ztgxj1jKm+hvLfe54GPJpBJHP9EostnWTF8Sv//E70uCdswHC+bLItDGXFpI73fFloavhm0hYc57PvWA2x5rL055EyPJp0JXmix3uLak4jdVyidD8L+dJMB1bxsSUWd04CALBBQgwAAAAAALoVluhSRdtmhDnDCt+X//Y5T1BFjTmb7wYZfdqFVPzlm7zWl7GmQpzpnry3VlDy7ZN4Qq41cedcSWZtPVVvWy96Whd16vlUu8/73RTZDC6LQcdndXliTuhfPNnFZoJlVjqfWRaS3I8MlSXtUk+MLZu0mk2kL7PfMZRdm93/1ijCW//6AwCcgIQYAAAAAAAElMrNP/F6VAmX3Cx6iIISelHyrY/yJZcsWVbw/vO8WHtrWC0ykssparT7Oy6yz6svOk51bia55Cpb/bA0L5cmsuWGqsgYEblndvAGMlQUUWjfwZRRMVr0OmJjbAab5tiBNi+dzNKdQ8qIaNIV51Na1DaaYf6apmk+5jPw2OdQBLleNsoSoFmaVnZlBwBoBgkxAHeZzaQoOsqbrN51QU9Foe0cec1JO+A4oSjNtV2vskT0OJKXF9quV2H/TpkDk6nV+yezWhrPkbdWhwEAAACgmyr78SOeAIsa45jEYgmZntfdywvt1+7ZRHn/W2W3M2VzbDZT4bpXqc/d00SP+5KuvpvqDmyjhqN7RU/LokZOIHMLz0FbYqqpJFV0nIhaN1v9O58lF5IyiDLKXSfDTlhcfwYpw6PIUOX6Oa070uN2kjIsiiw6DWnyDkn3OYFWhN5Ey2SX06KaUyn8lHFOa6mxz82K/AMAeAIJMQA3ZRYNoaXfFvO2eHeY6HW09LsS2znbVKLHtSU/V/Nzl/xlEj2OlvyhtZ3zu0b0OJdZMLDp/u2LEr32MkpHNJ2zo+07FQEAAAD4G31JHtXt30rxF9/UYr0vVusr8dJbKeWOKXY7U7Li7SewAvkxZ17q1lJJZ3rd+CBVbf6ZtPlHRY9rESPPIFNDrYjclxq5lW8u4E5ii5mp/EX6PHW0Iug6yqgYJXpbF5zcj3SFOTyp5Sk2G22a7lPSFhzlu2DKFAqSSf82i+pOF2fYLNacxZe4hvUfRkFJKRQstfAhoylixITGYv8AAO5CQgwAAAAAAAJG9dbfeVIr7uzLRU/Lmu9MyRJLef9bSeW/f0FmTT2V//oZJV5+uzjTCzIZpdw+icp/+YQn3VrC7odMqaS0uB2ixz368kIKiu8popbNlP1AVoOelquuFj3uy6waJ32eHi53iTxZauQWmm74kqZpPuH1wUJ69acVwTdSluF8UkXF8V1AnS3BZIX9lymupFURt9FKqS21/IMyPUjcAQCcgIQYAAAAdCsW6cWcoaLYoVl0WnEGAASymh1/UHDPPhTUo4/ocV/kyDN4YoztuHh4+WTbro1msxj1kkzOi/qXfPU2GataLrkR0rOfdI77Bf/T43bxshqZNa3Pnpph+ZZ/XCa/gn/0RlBiCunLi13WOkuP2UEz6HueBDNWlknn96IVoTfSUssllNGsaD/bFZT9Ljc31IgeAID2h4QYAAD4PVN9NRlrq8hsMoqeJiZNHR9j73ifzKzT2G7nJFHC+mxjjsuVzUa9bUy69sms0n1gY6wA8MmsFrNtrK5K9DSxkoWPsdZ8Oc4J7DZsjF3jZOxz8TEnj9+sqeVjFoPjWHc1e4uS/m/Vdw6t/pBnsyoAoPux6LVUt28rRY07X/R4h+26yH7nptw2iYo+e4Py332WjFVlYtRzbFfMlDufpMJPXuPF/l0JSuot/c53XDbJE18ymYiasFlWqth4Ebk23fQlyZQqWmq9VPR4hyW11NFx0teiVPRI9y1+F80OWk/TdJ+RtvAYKUPCeRJsmfIql8scWUKMPR59pfdfUwCA1sisEnEM4LeOvzSX5ucPFBG0l5WXx1Lc+deKqO3YE7xrHl0qoo6Taf6OTntnm4jaX9Fna2j2ZoWIuo/X59zkdQ2UzlT67bv0r7XSE39oN0vCttDquLtF1H09e/sQivRgFzhfVPjxq3TfJ8dEFFi+eH46qaJiRQTgneqtv9HhZU/QkDkv8VpU3qrdu4Wq//6V+twzncfsOU7ZL5+QRavhz53YDDRvmLUNlP/OM3zGmCLEsWZtsfQcpOKPrygoqQ9fOnhCWsx20pcU0HL1NaLH5inNx7Qy9CYROWJLElmSShURzZcqtofUqL+pIXsvhfY7hQyVpWQ1m6Wf3Rj+8+tuHTNmcukbZDWZ6NleD4oe37T8whBKuPQ2EbXNjocuoVmaCSLyf29OHElJV90pIgDfgxliAG5KT9pPs89S8JY6xPW7VbPOVNrOGeY4A+Rkc06z2M4d1SB6HM0Zp7d93nEG0eNcWs9DTfdvULHotZeesKfpnKHYZRIAAAACS82ODSQPCqGI4aeKHu+wXSoT/nGziJrvTHk/35kyf+1qajji3u6RzbEkWPJtj/IZZxaj48xmmTqYVDGJZDh5h3KLlWRy+xliqRGbSBEcKiJHbOaWNj+b1+tqr2RYWvQ2MlaU8ppg7D6G9OhDK0NvpCXGCz1KhjHsa2rW1lN6LGb3AkDHQEIMwE1WlZqMQ8/gzRLXS/Q6Mg07nZ9j7tFP9LhmHDSWn2vqPUT0ODL1HW67Xr8RoscFdVDT/Yt1XjjVKlc0nmNO7C16AQAAAAJDw5E9FDZwBMlV3u+2bdHryFhdTiHJA0RPkxM7UyZPfIL0Jfm2nSl3/OF0KbwrPLl2w/18phibXdWcQro+S5qxmWjNWa3SedLzvOb0ZSWkjksSkT22xFKTc1ga70lZunNEr3fSY3fSTPlPNE3zMd8YQBUTTyG9B0kjcspoNovNU+zrwL5uzpaIQvtbqP2C0qs/pAzDV6IHoPvDkknoFjpjyWRayhHSXWpbUqQ6sIWyNjqvxzPtXrYcR0bK43tpyS8tFwKd/s/RZA0JJ0VJDi392vnOQjNuGEiWmCSSV5fRsk8Oi15HaX1zSHfxRH6s2ruRsjY7/minJe0n3VX382PlkZ205HfXM9MYLJl0DksmuxaWTLY/LJn0H1gy6d6SyYIPX6LiL98SEbhr0JRlFDXuPBF1P1aLhbbdcyZf3tbnX9NEr+fYskvN8YPU6+b/Ez0tqz+wnaq3r+cJtNhzruD1wtyhL8mj0h8+pN53TpGeWtrmMVT88TVVb/mZdMU5pI7rQYtqTuP9c8I38XqSy+gyHrMkFVsKuSL4Bh43x8Ya8rIpJCmFFtWfIXo9NztkA6+bxpdERseRKjKOMsRuj2kxO3jdxtUJ/+axN9KitlLVtt8otPcgWq6+TvT6nu6yZPLxg8+SQaehMOnfclXf9lmmiiWT4OuQEIN2YaqtouOvZYio82mO7nNaaLo5VsdgUe3pInLPdONXvJA1w2ZXWRJt9SBk9VUUntSLFlU5FgJ96tbhZPzsNZJpakle67gLUHCv/o3vxCEh1jGQEPOOPyfEXr0gXHphkEhlv3xG06vst15/SfqxD+k9gKo2/0RP5vcXvTbPjWygiCGjqGb3Jpp8OEH02jwzoISixp5F9dl76bFdIaLXZlXPbIo96zLSFeTQw5vsf/csi9pBiZfcxHcKe/AX+3e1F6v+oF7X/ovPLrjvq0LRa8O+b1NufYQf50sv5tMUl/PjE9Zc1YvkwcFU9OXbNNtg/27+axdF8nfkS3/6hGbUNO3Sxbx8hpyCk/tR5cbvaWoRe8feERJi/gMJMfcSYvWHpBf80nMDTnqqe887zne8C3Ts91XSNf8SEVH0+PMpKDFZRN2PNv8o7XnqRur/yEKKv/B60eu5nNcXUfxFN1LYgOGixz2a4weo8s/vSBWbSAnS55e3sJzxBG3uYar863tKvm0Sj9nfssoN3/AdGI2VJbRMeTXvnx36J99Jl+3WyMykH0geGkZZGvs6aSxRpck7TKHJ/SlTJNM8kRqxmQwVJXxDAUV4FKmlvz0ZFfZ/d06YUvE/6Ws0tDFp543H81/mM+J8+W9Ut0mIHX6WDBoNhcfG08reD4jetunIhNjJsyfbQiaXS/9z3JQCuj8smYR2YdZr6bEdQV3WZtSOo5n1p7XYWFFOT7EEzonbz5I+x5zsON5mFw8imcUizjqJQWc7p7C/3ec/0VhNBQBoX0EJvSikZ39SBNsnrhh1bBIfk4c4JvvU0otrNsaKCZ9MGRHFx9RRcaKniUK6Fh9zshSF1aZhY85eVMqVaj4W3KOv6Gkik/4kszHWTswEaC64Rx8+xnYBO1lQQjIfY0t1TqaK7cHHFKHhogeg+wsfMoaSrpgo2j9FL5xMKf1+a/o6TezWyTBGk3OQf2RvkrYFmx0W1n+YiNwX2m8oL5bPEo9FX/yXij75DxlrHN88bS6kz2Db+Z+u4bFcbfs9L1cHSc8pm9WXtVjt/naYNLWOybDobaTJZcmwAR4lw1jB/hnW7/iSSPZmD/s+WRF6E0++uUqGMerIaDLXut4x0x3sjTq20QB0vMjYRFJLz6Mi4uzfIPRJVgtd+e+0dms1uzaKC0OgQUIMAAAAIMCl13xEMwr/67TNKn1bnAXg37Q5h/hyxZAU78tssDdLWRH6tswmYQml5FsfpYR/3MJne7EC/LoC1zM/wwaNktpIKvnmHbs3PuTBITQnbJMtsJhts1wkbLaYItT+TSC286Mm/yiF9hlMmTWtbyjACu7PDlpP03Sfka7wOCml67Ek2DLlVZRZ7bhCwhlFRDQZ69uYEAsKIYteS2lxmOXZ0SxWC82NvIkvLQYIFEiIAQAAAAQ4vaaepssucdrqyl3vrAztY6H+K1qg/aLjmu4L8ZkCm644l4KSUpzOtHUXW/YY0tf1ZkieYEXjk666i3rd8jDV7t1CeWufdrkzZeTICRSU0JNqd/8leohUcYlkqLLtNsmSGDKF7aUd2+UxKLZpBjPbbVJXcJxC+w6izFaK3M8J+4um6T4nTe4RXo4kJKU/rQi5kRZr7WebuYMl0cwNdSLyDpt1zZY9Ww1a0QMA0H6QEAMAAAAA6EKa2mp6tHpsh7WSo65rkPorlhg6sOB+2nrXBNr6rzPpUNajVH+45Q1XWM1bVaR7dehcYcsl27rk8mR8Z8rLbqOUiZN5IX1XO1NGn3YRTxCxGl6MXKEiMouSIFYzyWRyXiOM5DLKqLQtZZwTupF0JfkU2ncIZVY4T4alRW2jGaav+JJIU0MthfTsQytDb6Qlxgspo3y0OMtz/D60sVo1myHGsNqbAADtDQkxgHamPOr+lG7lkR18x0pFvusnqoqc/bZzjoviwK4Y9Pw81uSVxaLTnsxibjqnLE/0AgAAQFcKDg2jVcrfaW75e6Kn/SzWf00xSb1E1D2U/fwJHVz0CNXt+5ssRj1fUlezYwMdmHcvVW35WZzlyFhbSUo3N2ZwRZt/hO962BHYksfYs6+g3ndP40s78/63iirWf0XWE0kvSeyZl/GC9sbqch4rQiNpTsgGsrIaYnIF6cuLKCiuJx+bHbyBJ8/YMsmMCvvEFttpcqb8J54E05cV8kL/fEkkXUYZrcwi84RMpeK7RXqLLQtlWL1iAID2hoQYQDtTHnM+1d2ZrC1yytpopMW7XO8ylLVdzc/J2t7y9P7MoiG286S2KNux0DeTUTay8ZzF+9v2hBAAALrG3Np1ND1/jfNW8IY4q3XzNZ9RauV7NL3wDWqose2oDF1jftgNlJVwJ8k6YJczdUgoLYrrPhsLGCpLKXdNFlsjKHqasMTR8VcWuCzCzmeItTEhZqyuIFV0vIg6TuSoM6n33U9RSO+BVPDe81Ty7btk0Wn4bDK27NOs1ZCxTno8MQlkqCrnyxtZQo0lB1kSaZbqN+nxVtCKkBvsZnnNDv6Dpmk/JW3hUV6gnyXBlquv8Xgndnex+2tuw+wuuULJP1rNRv4RwNflvb2SDi97wqFlr5wqzgBfgoQYAAAAgB8xSC8uZyguddpqy0vFWU0yDF/RvIZPG5Nfk4++SI/sWUGTasbTFP05NEP2D5ofdYs4G8C3Vf31A58V5gorel+zfb2ImljNZjLV15AyMkb0eIcnpYJdv5HZ3vjOlHdOadyZsvT7D6THb6Dgnn3IVFNNFm09WS0m6XFXkb6sgFQRUWSsKiOz1L9cfR2/RmrEFppm+ILPBrMY9La6YME3UpbuHD7ekRTqYLIavU+IsZlyjNWMQu9gW7LMlkvX7RGbSbQTVhuQXbd2z2bR4726/Vvp8d1hDq1662/iDPAlSIgBAAAAdCNz6z6m2WVr6am8/9ATh5+jgoN76bHaUxuTX2kh19LCuNvF2QD+xVDhvCxEc6U/fEgFH74otZf4x6LP1lDRp68Tq8mlL86jyr++p6rNPzW+AG44uo+/INaX5JO+tIDX0WLNl5zYmTLxstt54kubd4TUcUmkLThGuqJc6X4Xkjb/GGlys/nywqCEXjTD+h1PghmryyhYitlssKWWSyijwlZfrFMoFGQxm0XgOV6HjM2ctDQtGz1ZetxumiX7kZ6sXEuTS9+gqTXv0Wz172IUupP8d5+h25Z9Rrcu+1z0tI97PzrMr3to0UOiBwIFEmIAAAAA3URm4h30eP3pNNV0Ps1SXk7p4TdQRvxEMQrNLYvaQat6Zje2LGXLL6Czgjfanb80bIsYcW5lj0N252cavxEj0Bbq2ERx5FrCxTfx5FHyrY/wj0lX3UnRp1/Ix0J6D6bQPkNIHd/TNtPLauFLKdkOlA1H9lDtro1U+ed3VPbjR1T06RrKf+cZnlDjH6WY1dtiyTUef/If/gK98OPXpI/PSh9fpfz3nqPCda9SwfvP84/stmy5I7texe9f8mQcmynCknH1B7bzZJw2L5sn41i9L5aIY7PQXFFFx/EaZsG9+pGxsoQMVWU80XcCWy7KlpWyx6MMj7LVBVNcRZk1p4ozOplcQWRp2+wumXQNNsPPmfS4XVSXLbXDu6THLX39pH9L9m9Uu+9vmqb9WJwFAOCczCoRxwBeY394rp/6nIh807NDq2ix5iwRuYe90zSz3vkTiOdH1UtPLk4TUZPU8M30+L5IETl6ul8Bf3fOH6y8PJbizr9WRG3HljFc8+hSEXWcTPN3dNo720TU/tiT29mbpSd43czrc24iRViEiHxXqfTC4l9r7XcSe/OWIRSc1JsKPn6FphbZFzt+/fIkCh80koq/f58mH7av+/LKOUEUPfZcqtj4LT26zb5O3wtjdBR/7tVUI704+r/19i9OnhlQQj2uvIMaju2n+74uFL02KxIPUm/pBZi+vJD+9f5+0WuzJGQz9b9vNpmlFzt3vL5R9NosMv9Ag55Ywo8PPzeL0uSX8uMT3rnvTFKEhNGxN7JolmaC6LV567ZhfDZA3ocv0rRS+93PXr+yF4UPGEbF366lyUd6iF57S6QX9qvj7hZR9/Xs7UMocrRnfwfaqmrv37Rjoet3nM997UdSubGEy6Spp5qDOyj/o1eo4OfPKD3MthSqM8yv+pBeGN71tU++eH66d/WfrBa64l+pImjy+uWJ0u+GUSIiKvziv/Rkbm8ROXp+VAMlnN/0da/6+1d6eJPrmS/vPngOr9G097XFZDbqqeGo9PvA2vJMGV19HWUk3CGi9rGgZh0p1WoR2VOERVLEsC5KlLigDA2n07L+JyJHhrIi2jXlWl5Y3hmFdPvRz39DSumxNccSTrueuJr6P7KA4i+8QfR67sD8+2jo/DUiah1LblnMJumjlt9ni0HHlzxaDXrbhgDSMeuzGqUxvZYs7Bzpo9VkkpqBZCq1NMY+BvHz2K6LFX9+SzKykqmh3umMObYTZXBSMt/gUaZQSedKFEqSyWU8ucRmXPGPcjn/yHan5IkrhdQvU1Cm2KGyPcxS/MQf+zLVNaLHc4/nPk+q6ARaFek4s3Wa/jM+W86V8CFjOvx59/ILQyjh0ttE1DY7HrrE4W98R5pZ8pb0+8n2s2SSvidTQ66lLMM30reD4/PckIgoyvBwef2bE0fyhHR7YbvJPrEvSkTtL9P0LZ327nYReWffnDtoal5fETXJNH8vvT7xfoMJ6BhIiEG7QEKsCRJiriEh5j42/T+joumFWmfw54TYyh7ZpAgJ5U+KZ5vOE702K+L3kTIimr9bPkt7pui1WRa1k9SxCWQoL6IZdfY/60vD/+ZJJraT1/Qq+925soI2UkivvmSqr6VpZUNFr81ixW98Ry/2AmBq0UDRa5Np/ZHCBwyXXuSY6ck8+xfeGcZvKEJ64s7UH9pJaaor+fEJT/fOI5lSQfXSi+o0mf3vEDb7hM100OQepjnmC0SvzYqEA6QMjyRtUQ7N1jn/HYiEWMcp2/wzXTHH9YvnPz9YRUEnzXgx1tdQ7eHdVL1vK29VUqs/dqDLZnohIWbjbULst8evowVRN4leaM0C7Vd0zYaWN3lgfwdy/is9nzj5ZYxMTgMeX0xx59j//mRYXa0dD/+D+t6fSomXeZ+88DQh1hHYpgJsN0m2VFJXeEz0NmF10iKHncpnVVllVv43R3rRx2uNsZd+fLaV9HNhm3XFYhMR26XSYpY+WE6a0cW+xnLb15otXWTjMuk5EEvuyuVSaOFJNXYtGUuisKWNou6XXKHiyXySrq+S/taeqAfGknQsS8diGftP+mhlOTm50mE3TKalhNjjOS+0WFOOfS2eSbxXRB3DXxNi8xo+o+LsA3xmsTtWyn+lJUmePVdAQqwJEmK+CQkxaJWxppInMlrCpmbfvvwzEfmm1f0LPS6Cqjl+SHoB7fyP0jODSvm7diez6HU05ajzWRjMyl5HpCf0cSLyDNt9alH9GSLqeEiIOYcZYl3LWUIM2gYJsY7TWkLst9fnkl76G9o8+VV3dD9ltvMsobZAQswGCbHO4U5CjGHLDgvXvcJn3rE8TfiQsZR8+ySKGO74ZiVjbqijbfedS73vmko9rr1H9HquKxNibKYYe9ysuL7VYOA1xOr2bXHYxTG4V38+g0yuDqKghGTKqBorRjpHWtxu6cfOSDKLlfRlRTwJp4q2/ew2zuxjM+BYfk36yJJtLCkn/d+WWDuRcBMfdYW5JA8NI3WM/Sxvdq6uKEdEzrHn6s/3fUxEHcNfE2LTCtbQzJNmo7cECTH3ICHmX5AQg1blr11ND3xbIiLoSotkv9BzvR8RUcdDQsw5JMS6FhJi7Q8JsY7TWkLMHyAhZoOEWOdwNyF2Ap/dxGcZtfx3mZ339x2n8rpivW55WPR67sCC+2novNdF1DnqD+2gmu1/sHdGKXr8BXwXTVZ3rD57D99Nku3kyHaPZDO2VFExZKiupKgRp/OZU2wVh0zqVyck06IuqCM23fAln8G9xHyx6PFMevwuqtr0IwX3GkArQuyXuqbF7qQq6Xes9K9r63CCLR/t6OfO/pgQY7sPF2UfoAUx7t9vJMSasNmZuWsWi8gm5qzLKeHiG5EQ8zMoqg8AAAAgYTuzlW/93WXjS3/cpJNehBb/9gXlfP6m6IFAFTVwOK2I3EEZ9Z/Sgtp1di297B1xVmCZW/UhLYveZddWxB+gp5OPU+wYz5LWfNldK8kwhp+nVPGZ/G3BZuuzZYIdjRfv/2wN5a19mq/W6HXzQ5R82yQKGzSSP96G4wdtu0cmpZAqOp4vSQwbOILkwWFsNSLVZ+/mCdmQlIEUlJgiXa+Apmk/pdTwTbZP0EksJj3JnayocJfFaLSt1nRyDVbrrLUkueqkWWVgw+oVepIMA3tmbR09cSDGrulbma0IvgkJMQAAACeWhG6mVb1zaJn0QvZkWeoNfGx57B7R04TVEGNjrLj+yTKtP/CxVb2Oip4mrIYYH5MaOz7Zqp5H+Bi7xsnY52Jj7HOfjN1HNpYV9KfoAVe0xXl0+cxXXbb6nEPizCZWi5lqj+ylgu8/pP0vzaeNj19LX50fT+dMnEFXZ7xPD/3legYRBIaxU5bQ+BmrSR0aQfMib7Zr7V1A318sjLmVZlSPtmvxp11A57/5B5394tfirPbHNiYxaepE5B1VXJLTQvbtge0QWf7LpzwJxmaBsd0ye9/5JMWcfjFP5p04p3rnRp5kYpsiWEwmvmMms7jhTLJI4yF9B/PdJzW57HeWlTKrx9MK9XW2nSlrKugpzcc0O3gDv01HY0s7SRUkIs+xZaKMXGW/8c0JodJjdZUQlavVFJLcX0Td07z6T2l2+Tset5oyz1f/mE34ewbdDxJiAAAATkQMHk3J191H0WPOFj1NQlMG8bG4My8TPU3UcT34WOJFjruYKUOj+FiPKx2XD7BiwmyMtROFh5tjt2FjyjDHpQKJF97Ax9jnPlnsGZfxsdCUAaIHvHUi+ZX7xVu0a+lk+v2ec+mLs6Loooey6Lpln9Fd67Lpsf1RNFd9hbgFQJPQ6FhaqfjNrs2reF+MBpYMw3e07uHz7VryZbeK0Y7DfkeyTVTags+2KskXUdux2WY1OzZQ/rvPUMk3a/muiCwJlnjZ7XxDmOZY6Yn8d56h6FPPJ31pPoX2HsR/L8mUTX8z2G6UipBwPnOK1djS5jftwJhZNZaWKa7it2O7HT/V8BHNUv7KN/LpKGa2M6ba+4QY23WTkSmdzzJbrDmbIoaO58nO5vjGAiNOp0VONsDqTnQNdTTVeJ7HbV6k58u4TdK/JUB3g4QYtCpK+qP739uH27U11/WlpweWNLaVffLE2b5rsWoDZQX95ZeNLSVY2fNIt3+XCwDAl/3+r3N58uvGZ76ne3+ooCcL+tGCCMfEJ4AzQWHhtCTxLrvGajsFIrbzbb9b/s+uxY623wW4IwQltT2ZFdyzr9OdHT2lzT1MhR+9TAXvP89nf6X883HqddP/UbCL53psA6uCD1+i3ndOoYYjtt2TWTF99Um71KrjEslYUUwhfQbznTWVETE0Tf+FGLVhOzkuo0tpZdgtxNZXanIP0kz6gdLj2rc+JyuuzzjbOdJdVrGDZEvLLrP059GzyQ9R1OizKWLYeIoedy7fWXJRXedtRAUdh9XQY4lg1lrbRKGtrFZL4+dqqZV+9564RZO6fVv5mKHS+ew7lrxm4wUfvih6wBcgIQatYu+69LjmbrsWffpF9OSRpMb2VAtFaH3FHOM5NFt/pl829iRguepqWibHrAMAgPZmaqijiu1/UN4Xb4ke59gyLwDwX0GJyaRnM8SkF73eCh88ihoOezejitUCK/nmHb4kUnP8IN/tMmXiExQ5cgKRzPXLMn1JHhV/8V/qffdUXjy/ducG2ywvTS0pwyLFWTaLak+XzjGQMjSClNFxZKqtJmV4BM0wfSXOsLfEeCFPjLHC96xQPzsvPcaxVIA3LLoGUni4w/vJLDotT9rJg4JFj2uLNWfyx7OornN2aYTOwXaSfeCbYt5mVHmfXHVHuuqqxs/VUnvkT7aZh70nc1P42KwG599/6aor+fj9n+dJP7vu1ySFjoWEGAAAAPid1JjtdNtvT7psTxqd1yEy1tfw5NeRtc/Q1tR/0Y83jqAvz4mmy6a/THd9elycBQDdEUuIsZpUbLaVt4KSepOuxP2VEWynx8q/vue7tles/5JiJlzCl0TGnX8N3wGxNWwmWekPH1Lvu54iuSqICj9+lSKGn05Wi5UvjXSGJY8seg1f3q8rzZfOiyCZOphmWL8VZzharD2HVoTeRKroBNIWHaPphs8pNaptO+KZ62t5nbO2YDXf2C6amVXjRA+A/2NLnsE3ICEGAAAAfkdmtVJ68FUum9VkoDmRW2iq5Vt6pPRN+vf+ZfTXrDvpy3NiePLrtje20P9tstDMunGUET9RXBUAujO23JHR5jtubOIJVWQsGavLReSE9Pup/uAOvhyy6NPXeSIu5c4p1OOaf5E6Lkmc1LqG7N1UufF7vkySFY5nyz0r/via4i+6ngyVRU7rRjJsGaW+opQnxoLie0qPN9u2tFImp1myH8VZzi2qn0Argm9sl50pDTXl/GvVFmwmjTy0bUk1AF+jK84VR9DVkBADAACAbidv/bc08YdquneLgh491oueqh1Hsw1nU2aA7uoH/mN+3Se0MmpHY0sve0eMuCdNOr/57dn1PLUs+K/G22cYXc8qcmUx/WK7feQOWiL/XfR2vbCBI3lSqOFw22plRY0/j6q3Ou7qy3afLPnqbcr730oyVJVSr5sfouRbH6WwASPEGe6r2/c31e7eRMm3T2pcTpn/3rOUdOWdpApnm6vIXdagy6w5layiGH1wSn9+X9julMvoMrKYjTRL+Qsfa8mJnSlZ/VpTfS0vwD87+A8x2jpWP8yi09HiBu/reKXH7pDut4aUYc5nwkHnUjTbvAHaRl+MGWK+AgkxAAAA6HbmR90sjgD8S0hcIg256d7GxmYGeUImk9vdPsSDGUkn9L34+sbbxw4eKXrdlzTubH7bwdffTT3PuFD0dj1FaDiFJPejei9rgJ0QfeqFVP33r/yYJZrKf/+CF8uu2vILxZ13DfW+exrFnnkZL5bvjeptv5Mm9zD1vPEB0UO85hgr2p101Z1Uu2cTqeOdzw47QREaQeaGOpIrVHxmHKsPxiyTX8nv82y1e4nKjMoxtJQupdC+Q/hyU74zpeLnVnemNNdXkyLCcVdkT5h4nSUrfyzQ9ZRt2C0U7LG6gOAbkBADAAAAAICAEDZ4NF+KyJY1eovt8MiWTLIkGCuSHz5oFKXcMZmSrphIysgYcZZ32JJIU20lv1ZzeW+vpF63PEyKkDAyVJW1WqxeHZPAz2OCe/Tls7xmB6/n8XLVNWSsraI5IRt47I6M8tG0xHyxbWdKubzVnSkNFSWkjk0QkXdM9TX8Y1vrkLWn1Kht9EjJf+1awW9fUfbbT7dLqynMpRnFb7nd9J1YnF3XUO/w+dOqPxCj4AksmfQdSIgBAAAAQMDRFeVSw5E9jc3cUCtGnDNUV9idr68oFiPO1R/bb3c+mc1iBLpS+JAxPNGiK/R8Ew1W4L7wo5d5bbCI4aeSKiaBet30IAX36ifOaJuyHz8imVJJ8RfeIHpsanZsIENlCSVcfBPVH9rJE3CtyawaS2Rl33NWSisYQCG9B5Am57BtUBKSPIBfc07YX6LHfa3tTJkWu5Mn4FThbUsOsqQj+xyL604XPV3PbNDRo8eT7dr9f5np9je3tkubqj2DplsvcrulBl8j7lnHSw25xuHza2ptSUvwDGaI+Q4kxAAAfFBrSxEAAKBtJu0Kpvu+LWls0yparvM0Na+P3fmTs1ue/fLgj5V256cqLhUj0JUiR9iSK9Xb3auHZayp4LPA2C6RmpxD1OPaf1PKxCco+fbHqXLDN0RWizizbYq/fJsX3GdLLe1I12cz0VL++ThfPlu99VeKPv0SMdgyZUQMmWqr+bE6PpmsJhPNUvzE44yKURScMph0pQWUGrGF93nK1c6URjY7THos7HN4Ky1mB5lqqqVrx4segO6D7XRrMehFBF0JCTEAAB/UlieR0D5MDXV8hy1Tve3FRHNmnYaPGZzsMsae4PCxCsdt/a0WEx/TlxWKniZWsoixAilwXMqjLyviY1azSfQ0Ye/y8zGj45Mrk3Qf2ZhZpxU9AACBKyipN4X0GUzVW34WPY4s0u9StrsjS4JVrP+aYs74B98lMu68q/nOjYxcHUQRI05zO7HmkvT7vnDdqxQ2cDhFjTtPdDZhn599rpgJl5CprpoUIRF82aQdi4XXjjuZKiqODDUV/Dgtvx9/3Jrc7MZljpnSc42wPoNIW5RDqVF/8z5vNO5MmZBC+tJC0uRnk7KN9cPYkk6r1Sw9BiTEoPtJV10p/axIz/egyyEhBgAA4ASb/fGvDw7Qo9vVoqfJ1ML+fOzhPw2ip8mM6tF87IEfbS9CmputP5uP3ft5juhpkqa4nI+xlqY4aYaA5N4vcvgYu8bJHvixko9Nrxotepo8tNHAx6YW9Bc9AACBLeb0i6j+0A4y1lSKHonVSvUHtvPlkEWfvk5BSSk8CdbjmrtJHZsoTrKXeNntVPL1WhF5zmqxUP57z1HUuHMpYtiporcJS8zlf/A8pdz1JNstgSrWf8mTcmxZZfPNFqxslprccfOFjIrR7Ga0KOUojxfUn0Yyldr2xouQUTGGQnsPIm3+MUqN2SZ6vZNZM57vCMkScWwJ8lOaj2l2sPt1yppjyyXZY1JGRYsegO5FjzpiPgEJMQAAAAAA8HsswcQSXRUbvqG6/VvJajKKEXsxp1/Mz63e+hvpS/Kp6NM1lP/us2RqqOWF65NvfZTCBgwXZ7umjutBIb0H8ut4it23/LWrKO78a1x+rtLv3qfQPkMoYuh4nrBjRfLZUkRGrrbNVGPYY5HJZSKyx2ZYGaub3qBh19PmH+VLEk9g9cZC2Uyx3CN2tcA8lR6/i7QFx6SvySBapriKJ9rYjGq+M6XyV7fLQaRJ5xmlx6qKiqXMirGit2vMUP9OU03fNDZNWZEYAcYifR+nVX9o1xbqvxKj0BLUEfMNSIgBgF9Ir/mIHju42q1Wkn2Afr5ljNet5pDzHZMAwH+tit1Dn04catdeHNi2FzbP9851uObqpENi1DuvDKt2uObyMO/q+5zwxgSzwzUXWV0vFwPwR5rjB2jvtJtpf/o9dPTZWXRg/n20a/K1VLPzT3FGk6DEFFKERfAC+bW7/6KES2/hu0RGn3oByRRKcZZ7et30f3xGmdWDTRMseh3fNTLxijt4cXtnzA11VPTZGul+TeFxjXQ/o0adyY+Z5gkxtmSS7fzojDI82m7p/7yq0bzv5F3uMqvGUUjKAGrIy6b02J2i1zP68mKexFpUY5vtxmaoLaNLbTtTyqR/o1Z2pjzBVFNOFoOOghJ6ip6uU7ZrM927VdnYHtzrOzte+oLUkGtpsvZMu2bBBiJu0ZXkiyPoSkiIAYCfkDXWx5gXeXOLbW7kTTS9epTHjb3DyupyyFw8qWwvbPeltJjtPtfMmvoua87qYgG0J7n0IlcRHGLflI7LYT0hV6kcrilXevZi+mQKtdrhmp6+QD+ZXBXscE15B/+eA+hMrC7jwYz/I22BbWngCYbyIjq89HE+a4z9ja/Zvp4XqC/9/n2KO/sKXtg6YsQEUoZ5n+RQRkTz+l5lP3wgelrG/ubl/W8V9bzxAQpK6CV6HbFkWMxpF/IkFcMSd5F2CbEgccRmiJmlp0mOSyYZXpNUrqDMXtmih/gMLl1RDqVF2y+RZImskF597eqMuSstejvpivMouGdf0WOvtZ0pm2O1leQqNaljWt64AsCfYcmkb5BZJeIYwG2a4wfppvT/igg62oqEA7QixH4L7s6w8vJYijv/WhG1HSsGe82jS0Xknbm1H9PjDR2z/fb3yx+muHHnisg19iR19mbnTzzdMbX2PZpR3bVLAHzN2/8+jRIuuVlELSv99l3611rM4mtPS8K20Oq4u0XkH9gLudu/c6zT5spq6ffowGsmisim8M8f6aGDcSLy3IsDiqj3BVeJyObY9+voiQLnMz7c8Z8xGkoaf46IbA6uW0PTaseJyHNvnqOi2CEjRWSz579P02zrhSJq2fyqD+mF4VNF1HW+eH46n33iMauFrvhXqgh8y6R9q2h+zK0islmq3kDD73xMRERbVs6ihbG3i6h16eXv0YTpTX9r9619gWYaHGsPtuT9q5IoNMmWrMn95QuadDyFH7vr9XF6Shx7Jt/VsCp7L92z0X4nxiz1Rrrs6yMiarvjryygsp8/FpGjoMRkij37Cooac7atVpdMRsaqctr52BWUeNlt1OeeGeJM77Dljywh1//RDF57zBVTbRUVfPgSJf/zsRaTcIaKYto74zYasfwjXr/MUFFCVZt+pKSr7hRnSL+/pOto821fQzabzKzX0lKL890n54Ru5Ocs0J0leqQ+07d8mSWfveXENM3HFNJ7sNub/EytfZ/f1yWmi0RPy1LDN5O+vEC6DwpSJyQ3zipLi/qbqratp5CeffkOll3t3gMraGrNGBGBO16I2k7zQ6/jx29OHGn3feuNEul53z3d8HnfspjdNPrZL0UEXQVvDwIAAHhodf8ieu+Ri2jNFT1ETxOWwGZjb95yiuhpsiR0Ex9be+8E0dMk0/w9H2NtkfkH0dtk7b9P52NLQjaLniZv3jKEj7HPfbI1VyTxsWcGFIuewMRmIWrLi+yauY1bnlsMRodrWo1tm+1o0mkdr9nG5Scmbb3DNS2sCHc3UvT5G3Tk6enO2+q2JTs6m666knJ+/ryxWc0e/ltJ/7bNb69rVj/KXUVbfm28fW1O08wid1Uc2Mlvm/fbV1S2x/vdC93FZk+1hO3S2+vmhyhi+Gk8GcaoYuIp9sxLqfyXT8msbeB93pIpVdT3gVQ6/upCPhPNGZbUKlj3CvW+c0qrM9IKPniREv5xS2Mx/xPF9JuzmyEm/ZuzxJIrizVnOTxGNvOMLXFkiSlnVPE9SFvgXtJylupXdifcToYxJ+9MOU37qXRfNpFOOpYuxpNkHW1yyRp6PO+lFpu5rooW1H5McyveF7cCVxZUr6MFNeukHzHn9ezAnqG8ECskfAASYgAAAB5iy3f50lpny86kJ4JsTKZwMmYVY05euEgjYkzOTnPAbsM/Z4tjjoNWmevbBRK27DAkvqddUzR7QekNuVrlcE2Zqm3LG5XBIY7XbLabnDeUIeEO15SLJejdRdmPH9GkbUoXTSXO8g/zQq+lx3J6N7aMBPuZja3JSLjD7vbsep6aUjas8fbuziRsboZ2Ar/tpNw+NK1uvOjtOJbWkttWi9OkV9KVd/D+it8+Fz3eY8sQ2W6RxZ+tET1NdEW5VPzlm9TnrqkkDw4Vvc6x5YRsaWfP6+/jMXvBbNbW86WZzckciuq3/DMtU6kos8dhERGlFw+h4KTepMl3nvDM0pxNqug4mmZo+WuTGvm3dJ+PUEi/IaLHM2xnyhVB11JIcj8yVJWTtvAYKcOiaXHDGeIMe2zXyier36HJRf+hyaVv0HTDl9R8gwBPmHVaSrVe1GJblnQ3PX/KZArDbpetSuw/mJ4fOoXmhbTf6pLujO0uzpZ1Q9fqXs+GAAAAACCgsJ0BWc0hCFyh/YeKI+fYzoyqyBgRNQkbNEpqI6nk23faPBOT6XH1XdRwdJ/drpOa3ENU9vM66n3XUyRTtV63MP+d1TwZpggN53H1ll8o+jTHmVfyoOZF9aX73kpCTB2bRPrKEhHZsGWJptpKmh2yQfTYy9Kdx2ezzTB9LXrsseL7Ddm7Kaz/MFpU1bbEZ0blWNtjkP4dVJHRNLVhncPOlNNNX1Ht3k1kKC/mP/dsCSr7+tbt3UJpUVvFWQD+g9Xdg66FhBgAgLB39Sza+Ph1rbYD/3uW7tqR4XUr2rONJh95scU2r/5Tca8AAKAlmmP7KV11pYggEPW45l9OZ8ie0OPaf7sc73n9/XwGV/kvn4ieNpDJacBji6j48//yRE39oZ1U9dcP1PuOKW7N9Kzb9zdp849S4mVNNePqs3dT+ODRImpiX1TfIj28ll/WLao7nax6rYhsUgsH0vKEe0ib0zRz7GSsGL5M+lwzrN+JHhuWqGqQfvbUicm0WOtZjTpn2Cwv9tjZTDhWO2xV2M3S15OoQfo6sp0p2cwwzfFD0oMVN2jGpKmT7otjyQAAX6cvQUKsqyEhBgAgPFnQjx7bH9lqm1Y1kmbqz/S6zVFcSmmh17bYsGU1AIB72IwcCGxs90VWGN/ZskFWND/pCtfLTmMmXEzhQ8fxul1trSXGyINCaMATS+j4S/P4TLHk2ya1mKxrZLVS3trVlHz7pMaZZLrC4y53bZSftGSytRlijEy6bxmJ+0VksyjlGFkMOj4byxVWrJ8t658p/0n0sJlvB6XHGkrL6DLR0zYsMWA16im09yDRY0vGscSYPCSUGo7skXpc7wXHdgxNxSwx8DNIiHU9JMQAAAAAwG9p/CwhNqtsLT2V+xpvlgAtqGyoLqcdGQ/zlvfVWtHbNqwe2Ijl66jnDfdT7FmX8XjYgv9S3/tTW01I9b5rKhlrK6n4i/bZQb3h6F6KGnsOX8rnbo2gyk0/8N0q485pmu1YseEbu7i55gkx4jXEWp+BtlxxJS/u31xqfn8K6TOYNHmHKT3e9U5+S2WXkcVo4ImzabpPpC+pglYE23YSbKu0mO2kLcrhNcuyDOeL3iZZ2nNIpmitFqCVLDqNOAbwD1gy2fWQEAMAAIBuzyK90DRpNXbNLL24awuLyeBwTYvRKEa9w3a+PPmabd2Fis3+OPmaFhc74fkjf5shZtA00CzVFbwtjPesYH53wQr93/9bPW/lfzfV22ortnNiysQnaOCU5dTn3zP5zC93sCWJbMfJ4i/f4jON2qJi/Vdk1tRT8u2PUb+H5lH209NbnQXCfsYL3nuO70DJll0yFr2OTf1yWYS/+ZJJ6QJuzRBjrCbH3yfqmES+5NJQ1vJuxMGJKaQrOk5m6XfIitAbRW/baXMPE0m/T0P7DBY9jmTK1jcsYbt9AvgTPRJiXQ4JMQAAAOj2plaNohvfO2jXHj3aU4x657Hcvg7XnFJ6ihj1zkP7YxyuOb3hdDHqnXu3KByumSq7WIz6N38sqB/dI5leit3J2/yqD0VvYMlS/0mbv3qNtzGpL4jerpUycTIvrJ/35nLR4zm226lcpab4C2wzp9jOkwMmZdKRZ2dT/UHXOyGW/bSO1AnJFDn6LNFDVLnxW4o923VtPLY08wSrxerWDDFGHhpGC5oVqmdS8/vxZBTbcZIVyneG1fiqz95FqqhYUoSE05yQP8VI28wOWk+6kgIK6tGHFmtc1yJTxyaKI+cUIWGkCA4TEYB/0Jfk88Q3dB0kxAAAAADAL/ljQf25QVdL7RreApeMFEEhvMl9ZFZPUFIK9br5Iar863uq+MP5rootYbPL1PE9KebMS0WPTXCvfjRk1vO8RlnZz46F+9kyv8J1r9pmhzXDCsyzGW+u2M0Qs5hJJnejTpkkKDaRjJXlImoyr2YcLY+/m3ROZrOlRmyhuoPbSR3Xg5arr6OQ5AFkqCymOWF/iTO8w3epPLqP5EFBFJrSVDvMmaCEnrzgvlMyGYX2G0oZFaNEB4B/SJVdIv0slYkIugISYgAAAADgl1BQH9pTz+vv48snc9dkub900mqlwo9eofBBo3jdMGdYImfI7BdIV3CEjj4/x654f9EXb1LkyDN4QucEVoMsbMBwETlnV1TfaqGMijEiallG5Vi2bpIWpRwXPU0Wxu0lbeExSoveLnqIF9KvP7xLun+n8OL6DEs8BacMJl1pAaVGbOZ93mCfi30twvoPo4wq6X61gD2+iKHjKCgxuXFZKcNmhkUOO5WWGC8QPQD+BYX1uxYSYgAAAADgl/ytoD74NplCQf0nZfL6gMdfnseTXS1huzvmv/csRZ92Qav1ylh9q953T+PLIA8tephqtq8nY00FlX73Ht9ZsrmqzT9TzARb8skVeVCzovoeUkTEkLG+SkRN5laMIHVMAt/dMi1qGz1Z9Q7fbIAlnLJOWs6YWTGKwvoMIm1Rrle7O85W/07agmMUFN+TlpguEr0ty6waR6sib6cY6esdNepMih53Lj2b/JDTQvydaXXSIfrwtiG8vTbedR3Jd67u0XhehvF70WvvrfPU9M4/onnL0H4peu2tit7VeM7LpzjO9mvuxHmspZe/J3rtPdvzSOM5z/XOEb3QWVBYv2shIRbAzA11tHPSFV61g1mPiqsAAASeuiO76djrmVTyveOTS11RDh/L//g10dPEVFfJx3L+t1L0NLFYTHyMNWdF1HPWruJjJunFycnyP3mNj+mlFyYnK/3hPT5Wl822rAfoXrrjDLG5VR/SYtkvjS2t7B0x4r7mt2fX81Sm9GL9xO0X1H8met23UHohf+L2GXrPlx92peCefan3nU9Szc4/qeTbd0WvI7YjZN7/VlH8+dfZze5qTfT482jI7BepassvtD/9X3xHTD7rSWDPz9nsr9YKxNstmfSQOiqOTNWOf0sYthySLZtkSySDk1JoVfitLmdvsVlbPCmWf9RuVllrUiO3Uv3h3aQIDqXQ/sNEr/tYYmyx9mxaVDdB9HQtZVgERQ0YyltIfJLodRTRe2DjeXIXmwSE9ewjndefN5nC+TnKkNDGc4Kkf0tX2O+OE+ex5mq3VVVEZNP1IqJEL3QWzBDrWkiIBTCrxUwza8d51WZrfOMPEABAV0iT/YNm6c6i2SbHd6XTFJfxsTnGc0VPkzTlFbbb6R0LB7M6SGyMNWc1kdht2Bi7xsnY52JjqQr72jUMu4/8dtJ9BuhO/LGgvjvCknrRqH9PbWxyhXvF0k9gs0Ca3z4sqSnZ4q7B19/dePv4kaeKXvcln30pv+3Iu56gPhf6X620xMtup+jx51Pe2yuodtdG0duE7QCZ9/ZK6nHlnRSc3F/0uk8RFkE9rvkX342SzQ45/upCW3FtScX6Lyn+vNa/ZnJ1U1F9T2VUjOYfF6Uc4x+ZRb2P0bzQTVR/eA8pQyP4UkR3Zl6xJZihvQeRJo8V5He9ccAJ6XG7qOHwLul1iIkvT81sZakkQHeHnSa7FhJiAAAAAOB3/LGgPvgJmYwGPLGEgpMHUPbq6aQtOCoGiCex2Mywnjc9SOoE73eqzX/3WepxzT10SurLFH/+tZT73yV07IU0nlhy57oypZIv8fSWMjqWDNUVlNnrCM1VrafavX+TWVvP63SFnzKWjNXlNCfUMRnoTGb1OL4BQENuNqXHOd+l8gRNzmEy1lVRWL9htFjTtKsmQKBytpEFdB4kxAAAoNMtNNgvoandu5nXUXGn1e33vFYJAHQ/KKgPHYnNkBoy4zmSK9V0eOkTZKqrJmNNJU9kJf/zMVK1sFStNfWHdlLDkT2UdNWdPGb1xwbPfJ7CBo8mQ1kh7Z/3byr6/A0ylBfxcVeaF9b3RFrcDrKazKTNPcSXRpJcRpHDxtOK4Bt4cosnuHr1k8YPi1u0blHNqRTSsw9PiqXF7Ra99qYbviRdcQ4F9ehDS2WXiV6AwKYvdix3AZ0HCTEAAOh0c9VXiSObSVvk9K//7XSrTdrmG1v0g39Jr3if10Jq3ryprdTc3MoPHK9Z+b4Y9c686o8crple4bwQsrvm1axzvGa569pI/gIF9aGjsZlag6avJmNlKR1eNpkKP36Vet/1JCnDIsUZ3slfu5p63fKIQx0wlgxju1GekvoKBSUkU+7bK2n/3Hso540lvNA+XyLcrNC/uwmxtNidNDtoPc0wfklPVv6P6vZvJ3NDLd/9MnLoOFomv9K2+2QzQUm9+YwxVvzeXaymF6s7pmPLJ09Kis2wfkeavEOkikui0L6niF4AmGO+gEy1jptcQOdAQgwAAAC6vbihY2j84/PtWvKZF4tR7/Q47TyHa8aPOl2Meqf3BVc5XDOqf9tePA646p8O1wxtw1IvX4EZYtAZWJ0rtgtk/aEdZCjNd1no3F3Vf/9Kpvoair/wetFjY6wqJ2VULJFMzhNlrNj+oCdX0LAFb1D8BdfxwtsFH7xAB+bfRwfm3UtHVk+nOuk+sYL27HozzN/QdNPXNM3wOT2l+YSm1n5AU8repMmlb1D9wR3S9ctIFhRCof2H0tKIWyjTejEF9ehN+spS2x04SUblGArpPZgacg87JLdasrj+DFLHJdktM52p/IX/vKoiYili4Ei+QyUANNFhlliXQUIMAAAAAPxKdy2oD75Hc/wgXy7Z995ZVL39D8pe+SRZDHox6hmrxUL57z5DKXdMJpnc/mVY+e+fU5yzYvoyOYUNGE49rr2HBjy2mIYueINOmfc69fn3TIoYOIrP8pLJlSRTqUiuVvPZa6qYOAru2YfCh47hya8l4TdRpuxSWtAwgdKLmxLs8ypGkUVbLyJHarZjotVCxsoS0eMetgOkKjqWL5GcpfyVGg7t5IX6w08ZwxNt3U3Jpl/pj5l383bo3RdFr6PNiyc3nqctLxa99na+vJi2rJrDm67G+U6gZbu3NJ5z9JsPRK+jzIQ7Gs9jLSPudjFir/DPnxrPyfv9W9ELnenEphrQ+ZAQAwAAAAC/goL60J7YrpG1ezbx2Vv6skLRS3xmVdWWnyll4hOUeMVE6nt/KlVv30CHsh4ls7ZBnOW+8l8/I2VEDEWfeoHosbGazWRuqCMVmyHmBpZMU0XHkzqxF7+NIjSMFjScwdv82lNpfvU4mls+gtLyB4pbuCZTqCktepuI7GWUj6bQPoNtO0jG7RK97snSnUcWk5HXKFMEh1HE0PGUWTVOjHYvGQkTaWHMrbYW90/R6ygj9rbG81iyypmFbpyTEd/0+VwluU44cR5rrmTE/7PpetIxdD7MEOs6SIgBAAAAgF/BckloL2yzlh0PXUwHM/6PDi+fTLseu5KyVz1FlX9+xxNiybc+QmzXSSbx0ltpwGOLeP/BhQ/ynRjdxZJuhR+9RCl3ThE9Taq3/UbR488XkftkXhbVb04dl0j6CtczwJYYLyR5UAjpPJyROd34FekKj5MiOJSCEpMps2a8GAGAk7El0dA1kBADAACAbs9qMZO+utKumU0GMeodi9HocE0206MtzAaDwzXJYhGj3jHptA7XtFqaCnP7IxTUh/ZQ+u27lLMmy2G2V9WmH3m9LrZM8WRx515Fg55aRdqCI7Rvzp18tqI7Sr5ZS2GDRvGaZCdjCTa206Sn5EFtT4illw4jq0ErIudC+wwinfR402N2iB7X2Eyyp+o/Ik3OQVLHJlDkyDOIFAqaKf9JnAEAJ8OSya6DhBgAAAB0ezK5goKiY+2aQqkWo96Rq1QO15RJL/zaQqFWO1yTTqo15CllcIjDNWVy24wXf4UZYtBWFr2W8t97TkSOdEU5VLnxexHZY0sehy18kx/vn/dvqvyz5bpLrAZZ8Zdv8aWXJ2MzQ9iOjt44eZdKb8nUIZQasVlEjhZrzyFVZBxppa9JS1KjtlLt/q18+Vdwjz4UNngMZVaNpWWyy8lq0NMs1a/iTABoDksmuw4SYgAAAADgN7p7QX1DXS0V/b2+sbFC7B6xWuxub6yvFQPuK9+3tfH29cWez1yoyTnMb1uyfQNVZbs3g6qz1R/a2WodsNq9rpNEof2G0vCsd/jHI8/MpOOvZfBlkc4Ufvwa3zUyuGdf0dOkYv3XfNaZN+TtsGSSCYpNIoOL3SZPCOk9kHQleTzp5cxs9e9Uu/svMtfXUNigkbQy/Ba73SSXKa/iP7uzg9eLnu5jiWoDvTbewNvqHtmi19HLw6obz1vQ8LnotfdCn1x6aVApb/NqPha99rJkvzaeszJqp+h17sR5rKWXvSt6wdfM1p1FZo3rDS6g4yAhBgAAAAB+o7sX1E8PupL+b3d4Y2MFtD2RkXCH3e3T1FeIEfdNOp7SePuZujNFr/umVo7kt31wTyRNKWva1dCXsBlirTG52OXvBFVUHA2d+x++tLLsp49p3+yJpDl+QIzasORtxfovqdfND4meJhajnqxmIylCwkSPZ9orIZZWPJisRqOInFtUN4GC4nqSNv+o6LFJj91JT2k+ptp9W6U7pKDIERNoGV0mRu2tUF9HxuoKmh38B003fUVTKt6mySVraGrdhzQn7C9xlv8J7z2A+l52C2/xoyeIXkfJF1zdeJ4yNFz02utx5sWUct7lvKlCQkWvvbAeKY3nxJ7iuAT3hLSydxrPY62ts42hY6GOWNfATwUAAAAA+I2GI3vFEYD3QnoPFkeuhfQdIo5ckylV1PuuqXRK6ktk0tTxumL57z7TOFus4P0XKPHy2/mukCer2vgDxZx5qYg8x5dM8nKAbV8CzZJyc0I3isi5kJT+ZKgopjlhm3g8O2g91ezexIvns8L50aPOpMXas/mYK+y8uv1bSXP8IBmryvhyUpYIqNn9F82U/SjOAgg8bAZme9v7zGyqPbxbROAMEmIAAACSR/etooXaL0QE3Y1ReqFal3/crulrqsSodwzSC7mTr+nN8rTm9FXlDtc0aTVi1DvayhKHa5oNejHqfzRHfXMJHviXoKQUijn9YhE5kgeHUsIlN4uodZGjzqSRyz/iyx+LPnuD9ky7iUq+/h/V7tlEPa5xLM7PsMLzoX29n0HHiupbycyKJIoe76ljE8lQ1fKyyczq8RTSsy9pcg/R1Nr3qXbfFrKaTXxDgFWRt1FG1VhxpmsN2Xucbz5isUhje1usZQbQnemL2z8hVrHtD/68AlxDQgwAAEBikZ7UW/27zji0YHrD6XTHD1V27YniQWLUO1PKhjlc86ma1l8QtmRSbh+Ha84yniNGvfPw/liHa6apLhej/qfhGArqQ/vo99A8Chs4QkRNWDJs0JPLeZLIE8qIaOr/aAZfRilTqSn3zeWkjIzhBfpPxmZIsfpjbcGWTLIac7J2WAqXWjiQ/SGk9DjXs0nYLpNWq4XP7NKXFVJwj74UPeZsWmq6SJzRMrYs0ljr+o0Iq9XcresDArTE2yWTrBaiWde2N84CGRJiAAAAAOAXukNB/Vklb9OUYy/xZjabRG9g0VWU0OZpt/F2/KNXRW/nYwmsYRlvUf9HFlLs2VdQ9PjzqddN/0ejVn1KUWPPFWd5LmL4adT7rqdIFRNPxspS2jfnDspe+aRdfbGqTT9QbBuWSzK8hpjZ2ubdbU9QhkeTqb5aRE1YImya/guq2r6e1xBThISTMiyKVobd7NassBNa28SAceccgO5I5+UMsQOvZlL2W6tEBJ5CQgwAAAAA/EJ3KKhv0OlIV1fHm6cF87sLs1ZDxb99yVtNF9e3kSmUFH/h9TRw8lIaPPM5Sr59EqnjksSol6wWKnj/eerz75k0+rmveUH92t2baO/M2+lgxoNUtelHkinVfBZZW7Alk2RlSybbZ3qzKjqOjDVNy6tSwzfTNO3HtkRY3mFShkdR5MgJFDn6LL4ZwEzlL+JM97iTuGP/HgCBCEX1uwYSYgAAAADgF7pDQf1VfR+kl0fP4G1+1YeiN7CEpfSn67ZoeBsz+znR231UbPiGF9uPPeNSUoSGU/Ktj9DoF76llDsm8wL02aueorKfP6b8954jbd4RcSvPsaL6tiWT7TNDLDV/AC/SP1P+E00pf5Oqd2zg91cZEUNRIyfQkrAbaV7VGErL70ehfQaTNucwpbWwxPJkbAaaXKESkXOqmARx5D9qsvfTofdf5q1o40+i19HRz99uPI/VoHQm75cv6dh363gzaupFr726/GON55Ttdl1zLTPhjsbzWGNLYsF3GSpLyeLH9T39lcwqEccQYNiuLtc8ulRE4MtWJBygFSE3iKjzrLw8luLOv1ZEbdce33Nzaz+mxxtOF1H39WzoZsqIcr+YL7Tdw7uXUc/Bw2hecPt9z/uLJWFbaHXc3SLyD2nR2+j27ypEBB2JJW1eGD5VRF3ni+enU+6aLJq0rfvMIJm0bxXNj7lVRIEjS72RLvva+0RQW7BaO0fecZ2E63nBtRQxcLiI7B374GUy1teIqIkqPJL63/YIP7YaDbT7yet5LTG2dPJkVpORsldO5cXoC377Qvpo4TtQhvY7hYJ69SV1VLzbM76sFjNV/PoZv5Y8JEz0eo4l1SxajfS1qecfeZJNoaCo/qdQRP+hlF7ivNbZrNqPSJ3Yk5bJrhA9rZth+Y4ajjpPbKui4ihi6HjKqBglejrWYzkvUJrsEhG1bFref2im0n9rL3aGl2J20dzgq0Vk8+bEkZR01Z0i8k7Jt+/SPWt3iah7+yTrQQpJGSAi97CdJJXSz/8p/5cmepr8fs95NGzSQkqY4F6dv0CEGWIAAAAA4BdQUB/aytRQRxPf2e2yVR/YLs50dOj1LKe3OfjqInEGUen371NI74FOk2FMffZuSrjkJhoy5yWqr6mh6XQxTakeTf+3I4ju+bqYJr67x+nncNbueG8fPV48mJ4oG0aP5fbxuj2e348mVwynqQ0TaJrlQn6fppkvIIsqyGUyjAnpM4i0eUcpLXan6GndMvnlFDZoJMmlazeSySg4KYXCh4zptGQYgC/SF+eKI+gsSIgBAAAAgM9jiQzsQAe+zCx9jxZ9toZS7pgiehzVbFtPUeMvsAXtVPurq8yrHkvK8EjSFTvuotmSZXSZ9DU4n6JGn0mRI06nmFMvpJURt1GmBwX6Abojbwvrg/eQEAMAAAAAn8eKevt7QX3o3oo+X0NR486jkN6DRI89Y00lKcIjSSbvPi/B2GPVFeZQavQ20eOezIpRtFhzNmXpz6PM6nGiFyCwobB+50NCDAAAALq9BfWf0bKgjXYtQ/+1GPXOQt1XDtdcoPlCjHonw/itwzXn130iRr2zyPKjwzXn+mExd83xA+Koe8uQvq9eHlbZ2NLL3xUj7kkve8fu9t58nz+Xcrzx9kvVG0Sv+1ZG7eC3fWVIOT0d5/8bIbiDFcQu+3EdJd82SfTYmDX1VLfvb2rI3i2Nf0Tx7Vib1RfMLR9BQXFJpCs4KnoAwFtIiHU+JMQAAACg22PFoYfd8ahdSxx9hhj1Tvzw8Q7XjBk8Qox6p+dp5ztcMzy5nxj1Tsp5VzpcMyTW/3ZyYzvaBQJ1ZDQln3lJY/N4NpFMbnd7dUS0GHAf+9k4cfvwXn1Fr/uiBwzjt+15xkUUOyQwakIVfPACJVxyM6njknhsNZsp/91naPv/XUQHFtxP+1LvosKPX+W7S5LVws/xdRadluaHb6YFUdtpUYrrhFdwygDSlxdTasQW0RNYMi0/0rO9c3lbHva36HW0Oulw43nzaqXvAydWRG6nVbF7eHP1xkWG/pvGc7IU60UvdAdYMtn5kBADAAAAAJ+nyT0kjgB8i9Vkouqtv1HP6+8TPUQ5ry+iok/X8F0nT2A7TBa8/wLlrV0tenybNv8I1R3cSbX7/qbq7et5csyZ9OJTeFF8TX626Aks0YNG0NA7H+Ot5zmXiV5HA2/8d+N5rhLV/a+4lQZffzdv6rAI0Wsvqt/gxnN6nHqu6IXuwFBeyHeNhc6DhBhAF0qt+oDmVLzXamsoK6LJmk+ctqmmb8TVAAAAui9DeZE4AvAtZm09T4YpRAJDk3PQNhPMhZKv3iZdkX/tJmcxGKj+0E6aH7lV9NgL7tmXTNWVNCfkT9EDAJ5KU1yOv3WdDAkxgC5UXZRHTxrOabU9WjSIHtgd7rQV/f2buBoAAED3hYL64KvYjI7Ey28XEVHNjg1Sp1VEjqwWC9Xu3igi/8EekibH+UzNtMJBFJLcjzR5gbG0GQLbQt2XlFb1QYe04l8+p/Itv7rdtEW5pCk45nTMWF9DNQd2OB070RpyA3Nm5wlIiAEAAAAAAHhJERJOclWQiGy1t1pjkl6o+iO2SUBGkvOkWFBSbzJLj32WGm/WQvdm1Otpsu6sDmk3/WcjXT77P263h/6W0QMb9E7HZtSMptvf2up07ETLXvuMeFSBCQkxAAAAAADwG2xGQ+Wuv7xq1fucL/k7ob6Fa5sNenHWSeRyu/OMRgMZtJoWm9FoJKvFLC7gm0zS43V23zVlBZQavJG3uRFNX8/U/P4U2nsQ3wAjPW636AUA8F0yq0QcQ4Ax1VXTNY8uFRF4a4HuCzLqdCLyTGVBDi2IbZpi740MwzeUctalInKkCAqm5eaLROSZlZfHUlw7bg/eHt9zc2s/pscbThdR9/Vs6GbKiLpZRNAZHt69jHoOHkbzgrvXlvjuWBK2hVbH3S0i/5AWvY1u/65CRK1bFb2LepxmX3y48vA+eiwnRUSeey75KMUNGysim9Jdm2hK6TARee6lgaUU1X+QiGwK//yZpmlOE5HnXhtVT2FJvURkc/yHT2mO7GIRtWx+1Yf0wvCpIoL2NGnfKpofc6uIbJaqN9DwOx8TEdGWlbNooQfPFdLL36MJ05v+1u5b+wLNNJwtIve8f1UShYrvmdxfvqBJxz37OXl9nJ4Sx57Ji81XZe+lezba76qYpd5Il319RESe2zJjIj28TSEi6EpZ9CutGT1LRESLUo5T7d5NFNSjLy0j189PfcFjOS9QmuwSEbVsWt5/aKbychHZe35AEQ257SF+XLrtD7rr+0p+fLIvHj6HgqLj+PGWrCmU6uR38LrbBjUW09/5Shalqa/gx8092zObF99nyvduo3s3y/hxV3spZhfNDb5aRDZZQRtJERouIu+wWYmz9WeJyDek16yjJzQTROTf1lwSQ2NmPyeiwIMZYgBtZNRqabL2TK9aW5NhTLr6Srp3q9JlK96K7ZgBvPX4oWdpZvFbIgJ/JlepKaL3QLumCg4Ro95RBIU4XLP5silvqMLDHa5Jyra98FdHxjhcUybHU0AAaH+p+f0otM8Q0uZnU3rcTtHbvdXnH6e8Hz/lrWLP36LXUcEf3zaeZ9LUi157ZTv+oqK/1/Nm0jtfeqspK248p+bYAdHrm1gia0bVqDY1X0uGMargYHohahtv86o/FL3+5e0b+tEf7yyl4Y9nip7AhGdDAAAALlhMJrJY7Wc2AAAAgGvzasaRIjiMdMX5oqd7m2U4i+7/W87b5MIBotfRw3siGs+bF3ad6LX38KF4+r/d4bzNj7hR9NqbZTq38ZwpZd7PSAbvzQ26muaHXs+bTOYbM/Q8pQqPopDEZP4xkGHJZADDksn2wXYDYQUQfdWyoI309ti5IvIMlkx2HSyZ7HzOlkyy5UyhMbG0vOe/RU/3FAhLJpco/6DE0WeIyKbqyF56qsZ+yaMnVoRvpdgho0VkU75vK83QnSkizz0dt4+i+g4WkU3xtvU0h9xb3ujMc8nHKCzJfslb/p/fOyxtcQVLJjsOlkx6J/eLt6lm/zbSFOVS8e9fit5OZDHzHRdlirbN3lx40r+9r0kre8fuxX54j94UHB0vIht1ZBStCndM3CyM20N1+7dS1NhzKbPK+9+zHam9lkyCjbMlk4Fg0oGnaX7ULSLyH+/dNYYG/3u6iAIXEmIBDAmx9oGEmPuQEHMfEmKdDwmx7p0QA+8hIdZxnCXE5lV/RCEJPUVEVF+YQ5kJd4iodSyJEd6rr4iItGVFtCDasxdri+nnxuW/+ppKmhfq2XOBTMO3pBR1kEyaBkpTXcaPT2hrQuyEkj++oavmrxURdLSXBpXQqtDrRdS6OYavSK4OohUhzmc6dTUkxNoXEmL+BQkxGyTEAhgSYu0DCTH3ISHmPiTEOg77HqpysozDoNOQOjhURDZGnZbkSiUplCrR457Y5D60IOwGEfk+JMSgJUiIdRxnCbFAgISYf/I0IZaRdIBqdm+i6NFnUmaN9xuDdBQkxNoXEmI2zyQeIHVULD9ukJ5vTqsbz49PWNjwOSWMbZpJXrz1D1oQeZOIOg8SYjaoIQYAAAFFrpBTUEgYb+rgELJaLLxlJtxJFrYMRsSscRarXZ+rplQHNV5XLsOfVwAACGzpJUMpKKEXafKOih6A7i9+1OmUcu7lvEUPGi56m6jCIxvHWVOG2L8ZC50Lz9gBACCgzA+7gVb0vp+3iLgEmhd1M298LOqWxpi1jIQ7aEHc7XZ9rlpoZFTjdeeFOi+WCwAAEEiCk/uRoaqE5oT9JXoAAHwHEmIAAAAAAJ1kRtGb9MTh53kzm0yiN7Doyorojwcu4S377adFL3RH6YWDKaRnf9LkZoseAADfgYQYAAAAAEAnsZhNZDLoeeNbFQYgq8lI9ccP8qYrLxa90F0F9Uwhs6aWZgetFz0AAL4BCTEAAAAAgE6yIuV+enHEU7wpVJ5t2NFdhPTsQ1f8mM/byCexwVN3l5Y/kEJ6D6KGnEOUHrdb9AIAdD0kxAAAAAAAAKDDBMX3ILJYyFBVKnoAuqfavKNUeXA3b5qSAtHbxKTTNo6zZjEYxAh0BZlVIo6hHRgqS6n6719F1L7CBo2ksAGOO1V4y1RXTdc8infl2iqt6gOarDtLRL4ni36h5NPOE5FnQvsMlr7vRomo7SzSH4B/f3hARN6ZW/sxPd5wuoi6r2dDN1NGlK3QO3Sc+Q2f0qTaU0XUNquDNtCi2H+KyPfNrf+ELEYjP1ZGRFNo70H8uKspQsNoufECEbmWFr2Nbv+uQkStyzB+R1F97R+jpriAZlnOF5HnFku/X8N79RGRTV3eMUpV/ENEnlui2kChCdILx2Zqjh6g9DZsZb88dAsFRdu2gD+h8uAumh9xo4haNr/qQ3ph+FQRQXuatG8VzY+5VUSBI0u9kS77+oiIvFfyxzd01fy1IoKO9tKgEloVer2IPDc/4m/S5ByiqNFnUUbFaNHbdR7LeYHSZJeIqGXT8v5DM5WXiwiceSlmF81tw98qfzXpwNN8UyZ/895dY2jwv6eLKHAhIdbOavdsotuWfiqi9rXmhv7U6+b/E1HbISHWPnw9IZap+YKeGfioiPwfEmLQngI5Ifbk8VdoTtBVIvIdKyN30H+Htf4EzdOE2OqEAzTwmokisin880d66GCciDz34oAi6n2B/dfw2Pfr6ImCASLy3H/GaChp/Dkisjm4bg1Nqx0nIs+9eY6KYoeMFJHNnv8+TbOtF4qoZUiIdRwkxNoGCbHO1daEGDOrbh2p45JomeJK0eOZmcEbSFft/u/+ltRn7+H17NyhkT5nasi1IgJnkBDzL0iI2WDJJAAAAAAAAHS40L5DSJt/lNJitosez9TmZtMDO0PapU1pOJ2e1J/tVkMyDKB7QkIMAAAAAAAAOtzcylGkjIwmXXGu6AHoXp7tkU2vDKvmbWXUTtELvgoJMQAAAAAAH5El+5U+vKF3Y0uveE+MuCe9/F2722fJfxMj7nvrXHXj7Z9JOiR63ffyKeX8tu9f15NeG10vegFsWI1aXXEepUZtFT0A3UfciHHU68yLeIsacIroBV+FhBgAAAAAgI+Qq1QUHBPf2GQymRhxl8zu9nKlSvS7LygypvH2ypBQ0es+VWgEv21IVDypwyJFL4BNeukwCopLIl3BUdEDANA1kBALJGz/hJMbAAAAAABAJwpJGUj68mJKDd8kegAAOh8SYgFCU5hDp156t10746bHqawozyfa1JzXxD0FALCZVba2w5umrkZ8trbTaeodrr9A96UYBQAAgBPSigZTcM8+pMnLFj0AAJ1PZpWIY2gHtXs20W1LPxVR+1pzQ3/qdfP/icgzLCF23r9SReR7sgzf0qq+D4rIv6RVfUCTdWeJyPfMr/6IwqJjROS7wqJjaV7IdSJybW7tx/R4w+ki6r6eDd1MGVE3iyjwLNR/RY9UjhaR/3o+cistCLtBRL7lyeOv0Jygq0TkO1ZG7qD/Dmt9G/C06G10+3fub72/OuEADbxmoohsCv/8kR46GCciz704oIh6X2D/NTz2/Tp6omCAiDz3nzEaShp/johsDq5bQ9Nqx4nIc2+eo6LYISNFZLPnv0/TbOuFImrZ/KoP6YXhU0UE7WnSvlU0P+ZWEdksVW+g4Xc+JiKiLStn0cLY20XUuvTy92jC9KUiItq39gWaaThbRO55/6okCk3qxY9zf/mCJh1P4cfuen2cnhLHnklWk4mqsvfSPRstYsQmS72RLvv6iIi8V/LHN3TV/LUigo720qASWhV6vYjaLjP5KNXs3EDhg0dTlu5c0duyR0rfpEeP2b43wbe8FLOL5gZfLaLAMenA0zQ/6hYREa29JIIi+wzixyU7NtID24P5sa95764xNPjfrT/f6u4wQwygm5sffQtNp0t8vpmMRnGPAQDan9ViIbNBZ9csUl9bWC1mh2uyz9MWVrPjNaWLilHvWMxGh2tapf8AALpSWsEACkkeQJrcw6IHwP/VHDtE5Xu38lZfiN1UfR0SYgAAANDtaUoLqeDPH+1abY7nu+c1V5t3zOGaDUV5YtQ7Vdn7HK6pqygTo96p3LfD4ZrGuloxCgDQddQJyWQ1GmiW8lfRA+DfHj3ak+7dLOdtSskQ0Qu+CgkxAOhUi3Rf0TLrjw5N4cUuWAAA7kpV/IMmHUu2azMN9ksTPTXbfJ7DNefQRWLUOzN0ZzhcM019hRj1zlO1Yx2uOS+8/ZY9AQB4Ky2/H4X0HkSa3EOUHr9L9AIAdA7UEGtnqCHmHdQQCxyr1H9QVpx9HR9PoIZYYEANsY7nqzXEskzfUVyf1mtwsaWJDxWfIiLoSKgh1nECtYbYAulvee/T3KsZ1RJNVTk9VjZcRNDRVgVtoPC4RBG1L4tRTzKFkmRyhehxrq68mJ4ynCci8CWoIeZfUEPMBjPEAAAAwGewGlqp1otbbRa9TtwCAPwN+zmfWXdqm5uptlpcETqD1WR0+vu4PVq68kpKk13qdKx5Y0lWAID2goQYAAAAAICPsBiNVJ29r7GRh3sqyMhqd3u2qYKn6gpzGm9v0NSJXvfpqyvEbRvIqNOIXgAAAN+ChBgAAAAAgI+Ybb2Q7l6vb2wL491fLsksjJ9od/vZ5gvEiPse2BHcePsnS4eJXvc9eqwXv+0t647SA9uDRS8AAIBvQQ2xdtaRNcQWWX8imcq7wuMmvZ4eKR0qIt+DGmKBAzXE3IMaYqgh1tF8tYbYYv3X9HS/h0Tk2kLdl/RI1RgRQUdyt4bYvLqPqSI/R0SBQaZQ0HNDnhCR55zVEAsE7VWXLrXyfZqi96w+GnhvpeJXWpJ4t4i6xsySt2iapW2bl0DHQA0x/4IaYjZIiLWzjkyItcW8hk/psdpTReR7kBALHEiIuQcJMSTEOhoSYuAud5MXc2vXSb+fJ4goMMwtf49eGuX9CwokxNoGCbHOhYQYtAQJMf+ChJgNlkwCAABAt7dEtYHWnG6xa6ukJ+9tsSJim8M1l4VsEqPeeSbxgMM1F8t+EaPeeb5PjsM1M/Rfi1HobNML36DHDj7Dm9nkeX2v7oA97hNfgxmF/xW9AAAAnQsJMQAAAOj2gqPjKGHkqXYtLDFZjHonNKGnwzWDYxPEqHfCevZxuKY6IlqMeiei9yCHayqDQ8UodA22QCPQF2nYvgbsPwAAgK6AhBgAAAB0e1aLmYwN9XbNYm7b9v3Orklmsxj1Dtth0OGaFg+3GTyJxah3uCYqZnSd5b3upedPmcKbQuldbVh/xx73ia8B+3oAAAB0BSTEAAAAoNuTyRWkCgu3a3KFUox6x9k1SaEQo96Rq1SO15S37emaXBXkcE2ZTCZGAQAAAAITEmIAAAAAAADgUxYaUOsQADoWEmIAAAAAAADgU+aqfW8nZADoXpAQAwAAAADwEfNq1tGy4E2NLb3sHTHinjTp/Oa3Z9fz1BLF7423X6j7SvS6L9P0Pb/tcqkttvwkegEAAHwLEmIAAAAAAD4iNKEHDZv4cGOTeViXTiaT292e7Ybqqf6X39p4+7ihY0Sv+3qefgG/7Sm3PkDJ51wqegEAwFcUf/k27Zl2s0cte+WT4tbdBxJiAAAAAAAAAAABourYATr++zcetcOfvEm//PO0xrZn1QxxNf+FhBgAAAAAAAAAQIBYEHMbzYu8yaOWFnwVTSsf2tiKfv1cXM1/BURCTFdwjBqO7O2Upi08Lj4rAAAA+Irqowdo79vP2bWSHRvFqHfK9vztcM2qg7vFqHeKNv/mcM26vGNi1Dt5v37lcE1tRakYBQAAAPBcQ84hqt27xWlexN1mMerF1bqGzCoRx91WwfvPU+quCBF1rFnq32hKdpKIfMe8hk/psdpTReR7sgzf0qq+D4rIv6RVfUCTdWeJCFqzSv0HZcVNFJHn5tZ+TI83nC6i7uvZ0M2UEXWziALPQv1X9EjlaBH5r+cjt9KCsBtE5FuePP4KzQnyvR28Fuu/pqf7PSQi1xbqvqRHqjyvbQSem1/1Ib0wfKqIXJtbu076/TxBRIFhbvl79NKo6SLy3KR9q2h+zK0islmq3kDD73xMRERbVs6ihbG3i6h16dJ9mjB9qYiI9q19gWYazhaRe96/KolCk3rx49xfvqBJx1P4sbteH6enxLFnktVkoqrsvXTPRosYsXH3e6o1qZXv0xS9Z48NvLdS8SstSbxbRF1jZslbNM1ykYjAl7wUs4vmBl8tosAx6cDTND/qFhEFnv+ebqGV8stF5LlXp15B6riuy59gySQAAAAAAAAAeE1TW02zy99p98bebAHfpa0qE0f+CQkxAAAAAAAAAPDaU+bzaarxvHZvDdWV4jOAL9L5eQkGJMQAAAAAAAAAAMAjmkrMEAMAAAAAAAAAgACiryyjtLhdIvI/AZEQq9v7Nz1ZubZTmi7/qPisAAAAAAAAAADd08K428lQUyUi/xMQCTF9eSHNrD+1U9os7DYIAAAAAF7SSy8s8td/19isZvsdGltltdjdXl/r+QuVku0bGm9fl39c9LqP7SzJbluw8QeqOLBD9AIAQHekrfTfOmJYMgkAAAAA4CPmhlxDj2QnNraMhIlixD0ZCXfY3X5u8NVixH1PFA1qvP0s07mi133T6saL2/egqVWjRS8AAHRHOj+uI4aEGAAAAHR7K8K20rtXxNu1Z3u1rczB6oSDDtdcFdO2Ohov9Mt3uOZS9QYx6p1Xh1c7XDPT+L0YBQAAAPAeZogBAEDAmF32Dj28Z3mHtsLD+8RnA2gfytAwCu/Z264FRUSJUe+oIyIdrqkMDRej3gmKinW4piI4VIx6JygmwfGaarUYBQAAAPCetgIJMQAACBCamirKiPtnhzcAAAAAAPBt8yNvpFmhf4nIvyAhBgAAbluo/YL0mnoRAQCAp6blvU6P7lvJm8lkFL2BhT3uE1+DaflrRC8AAPgrnZ8um+yyhJhJekGV/daqTmk1BTk0s/hNh5ZW9YG4NwAA4A5NXQ0v2AzgbyxmA9XlHrFrRr1WjHrHbNA5XNNqaFuCw9RQ73hNk1mMesdQV+1wTbJ4uHMhtBu5SklKdRBvMplM9AYW9rhPfA0USoXoBQAAf4WEmIeM9TV0+1vbOqU92XA6TbNe7NC00gs7AABwn6a2WhwB+Be5Qk0RfQbaNVVQiBj1jkId7HBNmVolRr2jDAt3vGYbEwbqiGiHa5IciwS6yrIe99Czgx7jTaFQit7Awh73ia/BUunrAX7CYhUHAAD2tH660ySeDQEAgFvmaz8nfUODiAAAACCQVJcW0eSjL9LssrW0UP+l6AUAQEIMAMAttaXF9PihZ71ulYW54krQ2bS1NZSZiOWSAAAAgYiVTEgLuZamms6nokP7aerxVyi18j3KMHwlzgCAQGWoraLUqG0i8h9IiAFAp5offQvNjbjR6zYv6mZxJehsWiyXBAAAAMnC+H/S7KCraIr+HCo6fICeyvsPpdV8KEYBINCwhLmuyv9miSEhBgAArZqv+Yz0Go2IAAAAAGwWxN5Gs5SX02TNmTTpwNM0vfANmtfwiRgFgECh9cOEmMwqEcedSltaQOfeMVNEXWOJ8Vta2edBEXVv8xo+pcdqTxWR78kyfEur+vrnvwXbrXSy7iwRAbSPZ0M3U4YPzYabWfIWTbNcJCJw1xLz96RQ+OYOapraGpoXeZOIfMdi/df0dL+HROTaQt2X9EjVGBG1Lr38PZKr1CKysZqNtDD2dhF5Lr3ifZIr7YvoW0wGyoj7p4g8N7fyA5KdVGjdYtRTRvxEEXnO6TUN0jUT3Lvm/KoP6YXhU0Xk2tzadfR4wwQRBYa50vfVS6Omi8hzk/atovkxt4rIZl7txxSR3E9ERDVHD3i0u29a2TsUPWCoiIjqCo7TAg9/1peq/yRFUDA/1paXUHrQlfy4vbj7PdWa1Mr3aYr+bBGBr5lfs47ComIoVGrzQ68TvW2D5yOBx9dfs7Mk8PyoW0QU2J6O2U1rhnj2u/3VqVeQOi5JRJ2vzQkxY00FaXMPi8h9bDrdlQvfF1HX6IwfLlZ0UtdQJ6KuY7VYKDXkWhH5HiTEAOz5WkKM1W9jS1YBOlpHJcTAe0iIudYRCbGl6g00/M7HRES0ZeUsjxK3LPk7YfpSERHtW/sCzTR4ljR6/6okCk3qxY9zf/mCJh1P4cftBQmxwJIuvR5Sh4TxxFhoRBTNbcNrEiTEAg8SYv4j0/g99b/oahG5J+HS20gVGSMiz0UMP83hTT9PtDkhVrHhG7rz5d9F5D62/GZSzXgRdY3O+OF6Kvc1mqW6QkTgChJiAPZ8KSE2v0H6fV3btb+vIXAgIeZ7kBBzDQkx7yAhFrjSy9+hoLAICpNeAAdHRNLcIM9ePCMhFniQEPMf6WXvUvLQEZSu9uznui2+fGEGKduQUEMNMQAAaJEGxfQBAACgHWTE23aqfNJ4LhUd2oedKgG6EVaKwaQ3iMg/ICEGAAAt0tYhIQYAAADtCztVAnQ/Br1WHPkHJMQAAMAltiHH3AjfK7wOAAAA3Qd2qgToHow6JMQAAKCb0NZgdhgAAAB0HlaPaYbsH/RY7Wn02MFneN2w+ZrPxSgA+DKjTieO/AMSYgAA4JIGyyUBAACgi8yLvIkX0S86vJ+eOPwcGTQaMQIAvsiAGWIAANAdzKv/RHoi6hs7XQIAAEDgyky8g9LDb6A5wZ23ex0AeG5h3O00X/OZiHwfEmIAAOAUdpcEAAAAAABP+NOySSTEAADAKW1NjTgCAAAAAABonT8V1kdCDAAAHMyt+5jmRWO5JABAZ9NVVdLxHz5ubFazWYy4x2q12N1eV10pRtxXsOmnxtvX5hwRvQAAAK0z6v1nhpjMKhHHXqnY8A3d+fLvInIfW1c6qWa8iLrGEuO3tLLPgyLqGE/lvkazVFeICFzJ1HxBCoVCRP7FbDJSWtj1IgJoH8+GbqaMqK5LSE0veINmyP8hIoDOs1j/NT3d7yERubZQ9yU9UjVGRNCR5ld9SC8Mnyoi1+bWrqPHGyaIKDDMLX+PXho1XUSem7RvFc2PuVVEgcPd76nWpFa+T1P0Z4sIALqjznjN3haTDjzNd0aFJvOrP6IXhj0poo715QszSBkZIyLPISGGhJhPWFj/Kc0Nv0FEANDVCTH8cYeugoSY70FCzDUkxLyDhBgAuAsJMf+TXraWeg4ZSfOCrxE9HaetCTEsmQQAADvsRS3+sAMAAAAAgKcyEu4kk58sm0RCDAAA7GhqUUwfAJqwxQTpNR+12vypZkhXYqsHHt69jLdAnB3GsMf98C7payC1Kcdedvr95E4zGfTiigAA4EuMev8orI+EGAAA2NHWVYsjAACiBbG30ROaM1ptU03ni1tAS1TBwRQcFsFbetm7ojfwZCRM5C01+Gqn30/utGnWi8TVAADAlxh1/vEmmcyk01qNtVUi9FzVlp8p5/VFInKf2WSiJ7q4zgRqiPkO1BADsNdVNcTYO+7sRQZAV0ENMfAnqCEGANCxFlR/RKrgEBH5Hl19HS2M/6eI4ISFdZ/Qc0OeEFHHaXNR/YIfPrJeu+QTEQYWJMR8BxJiAPa6KiE2Lf91mqm4TEQAnQ8JMfAnSIgBAAA4YjOgk4eOoHT11aKnY6CoPgAAtBst6ocBAAAAAEAbsCXxJr1BRL4LCTEAAODSqz/CTAUAAAAAAGgzgx8U1kdCDAAAOA2K6QMAAAAAQDsw6pAQAwAAP7BQ/zWWSwIAAAAAQLvwh50mUVQfRfV9AorqA9jr7KL6adUf0v+3d8e6kEZhHIffgiFEJLusWqFyA1ql7AXYvQkSKhKKGZFoXAC9hHYzV7D3oNlKtYmsijF2iqFwmkkoFPN933Gep/vPBUzxS97zbffX0oL6eFSfnHhUHwDednh3GUvLK2mNx+rJVUzMzaf1cYKYINYIghiMqjqI7dycx17LfxX1E8TIiSAGAPlyMglQuM6gG/0H55IAAEA5BDGAwj31etH+spkWAADA51f0yeTxUzfmFr6lNR73/25jf/p7WrzHySSMqvJkcufmLPZaG2lBvZxMkhMnkwCQr6KDGM0hiMGoqoJY+383/v65jvbXH+kXqJcgRk4EMQDIlyBGIwhiMOp04ndMTk29jjEa9HuxO1xPC+p39Pgr5heX0nrf83AYW76MSs0EMQDIlyBGIwhiAEBuBDEAyJdH9QEAAAAoiiAGAAAAQFGcTNIITiYBgNwc3F5Ea2Y2rY8b9B+js/gzLQCgSoIYjSCIAQAAAFVxMgkAAABAUQQxAAAAAIoiiAEAAABQFEEMAAAAgKIIYgAAAAAURRADAAAAoCiCGAAAAAAFiXgBA/bHPDSKHcQAAAAASUVORK5CYII=" vertex="1" parent="1">
          <mxGeometry x="570" y="-139.73" width="829.94" height="219.73" as="geometry" />
        </mxCell>
        <mxCell id="_LLoPAO4SvOWdNi-FfkY-4" value="" style="shape=image;verticalLabelPosition=bottom;verticalAlign=top;imageAspect=0;aspect=fixed;image=data:image/svg+xml,PHN2ZyB4bWxuczpkYz0iaHR0cDovL3B1cmwub3JnL2RjL2VsZW1lbnRzLzEuMS8iIHhtbG5zOmNjPSJodHRwOi8vY3JlYXRpdmVjb21tb25zLm9yZy9ucyMiIHhtbG5zOnJkZj0iaHR0cDovL3d3dy53My5vcmcvMTk5OS8wMi8yMi1yZGYtc3ludGF4LW5zIyIgeG1sbnM6c3ZnPSJodHRwOi8vd3d3LnczLm9yZy8yMDAwL3N2ZyIgeG1sbnM9Imh0dHA6Ly93d3cudzMub3JnLzIwMDAvc3ZnIiB4bWxuczpzb2RpcG9kaT0iaHR0cDovL3NvZGlwb2RpLnNvdXJjZWZvcmdlLm5ldC9EVEQvc29kaXBvZGktMC5kdGQiIHhtbG5zOmlua3NjYXBlPSJodHRwOi8vd3d3Lmlua3NjYXBlLm9yZy9uYW1lc3BhY2VzL2lua3NjYXBlIiB2ZXJzaW9uPSIxLjEiIGlkPSJzdmcyIiB4bWw6c3BhY2U9InByZXNlcnZlIiB3aWR0aD0iMzA1LjIxNiIgaGVpZ2h0PSIyMTAuNTUyMzIiIHZpZXdCb3g9IjAgMCAzMDUuMjE2MDEgMjEwLjU1MjMyIiBzb2RpcG9kaTpkb2NuYW1lPSJsb2dvLnN2ZyIgaW5rc2NhcGU6dmVyc2lvbj0iMS4wYmV0YTIgKDNhOWVlMjEsIDIwMjAtMDMtMjQpIj48bWV0YWRhdGEgaWQ9Im1ldGFkYXRhOCI+PHJkZjpSREY+PGNjOldvcmsgcmRmOmFib3V0PSIiPjxkYzpmb3JtYXQ+aW1hZ2Uvc3ZnK3htbDwvZGM6Zm9ybWF0PjxkYzp0eXBlIHJkZjpyZXNvdXJjZT0iaHR0cDovL3B1cmwub3JnL2RjL2RjbWl0eXBlL1N0aWxsSW1hZ2UiLz48ZGM6dGl0bGUvPjwvY2M6V29yaz48L3JkZjpSREY+PC9tZXRhZGF0YT48ZGVmcyBpZD0iZGVmczYiLz48c29kaXBvZGk6bmFtZWR2aWV3IGlua3NjYXBlOmRvY3VtZW50LXJvdGF0aW9uPSIwIiBwYWdlY29sb3I9IiNmZmZmZmYiIGJvcmRlcmNvbG9yPSIjNjY2NjY2IiBib3JkZXJvcGFjaXR5PSIxIiBvYmplY3R0b2xlcmFuY2U9IjEwIiBncmlkdG9sZXJhbmNlPSIxMCIgZ3VpZGV0b2xlcmFuY2U9IjEwIiBpbmtzY2FwZTpwYWdlb3BhY2l0eT0iMCIgaW5rc2NhcGU6cGFnZXNoYWRvdz0iMiIgaW5rc2NhcGU6d2luZG93LXdpZHRoPSIyNDAwIiBpbmtzY2FwZTp3aW5kb3ctaGVpZ2h0PSIxMjcyIiBpZD0ibmFtZWR2aWV3NCIgc2hvd2dyaWQ9ImZhbHNlIiBmaXQtbWFyZ2luLXRvcD0iMCIgZml0LW1hcmdpbi1sZWZ0PSIwIiBmaXQtbWFyZ2luLXJpZ2h0PSIwIiBmaXQtbWFyZ2luLWJvdHRvbT0iMCIgaW5rc2NhcGU6c25hcC1vYmplY3QtbWlkcG9pbnRzPSJ0cnVlIiBpbmtzY2FwZTp6b29tPSIwLjc0NTg2NDM1IiBpbmtzY2FwZTpjeD0iLTMxMi4yNDYyNCIgaW5rc2NhcGU6Y3k9Ii0xOTIuMDg0NjYiIGlua3NjYXBlOndpbmRvdy14PSI0NzkyIiBpbmtzY2FwZTp3aW5kb3cteT0iMTAzOCIgaW5rc2NhcGU6d2luZG93LW1heGltaXplZD0iMSIgaW5rc2NhcGU6Y3VycmVudC1sYXllcj0iZzEwIi8+PGcgaWQ9ImcxMCIgaW5rc2NhcGU6Z3JvdXBtb2RlPSJsYXllciIgaW5rc2NhcGU6bGFiZWw9Imlua19leHRfWFhYWFhYIiB0cmFuc2Zvcm09Im1hdHJpeCgxLjMzMzMzMzMsMCwwLC0xLjMzMzMzMzMsLTU4OS43MjY2NSwyOTUuMjM1OTkpIj48cGF0aCBpbmtzY2FwZTpjb25uZWN0b3ItY3VydmF0dXJlPSIwIiBpZD0icGF0aDE4MCIgc3R5bGU9ImZpbGw6IzJhMzk0YztmaWxsLW9wYWNpdHk6MTtmaWxsLXJ1bGU6bm9uemVybztzdHJva2U6bm9uZTtzdHJva2Utd2lkdGg6MC4xIiBkPSJtIDYyMS44NDgsODkuODgyIGMgLTM2LjI3OCwtMzUuMTU5IC05My45MTgsLTM1LjE1OSAtMTMwLjE5NiwwIDAsMzcuNTc0IDAsNzUuMTQ4IDAsMTEyLjcyMiA1LjU0MywwIDIzLjc5NiwxOC44MjMgMjguMDMzLDE4LjgyMyAyNC43MTEsMCA0OS40MTksMCA3NC4xMywwIDQuMjQyLDAgMjIuNDksLTE4LjgyMyAyOC4wMzMsLTE4LjgyMyAwLC0zNy41NzQgMCwtNzUuMTQ4IDAsLTExMi43MjIiLz48cGF0aCBpbmtzY2FwZTpjb25uZWN0b3ItY3VydmF0dXJlPSIwIiBpZD0icGF0aDE4MiIgc3R5bGU9ImZpbGw6I2U1NmYxOTtmaWxsLW9wYWNpdHk6MTtmaWxsLXJ1bGU6bm9uemVybztzdHJva2U6bm9uZTtzdHJva2Utd2lkdGg6MC4xIiBkPSJtIDYyOC44ODYsMTIzLjUwMSBjIC0wLjMsLTMuMjAyIC0wLjU5NiwtNi40MDcgLTAuODk3LC05LjYxMSA0LjUyMiwyLjgxMyA5LjA5NCw1LjU3OSAxMy43MTgsOC4zMDggLTQuMjczLDAuNDcxIC04LjU0NSwwLjkwNSAtMTIuODIxLDEuMzAzIi8+PHBhdGggaW5rc2NhcGU6Y29ubmVjdG9yLWN1cnZhdHVyZT0iMCIgaWQ9InBhdGgxODQiIHN0eWxlPSJmaWxsOiNlNTZmMTk7ZmlsbC1vcGFjaXR5OjE7ZmlsbC1ydWxlOm5vbnplcm87c3Ryb2tlOm5vbmU7c3Ryb2tlLXdpZHRoOjAuMSIgZD0ibSA0ODUuNTAxLDExMy44OSBjIC0wLjMsMy4yMDQgLTAuNTk4LDYuNDA3IC0wLjg5NSw5LjYxMSAtNC4yNzUsLTAuMzk4IC04LjU0NCwtMC44MzIgLTEyLjgxMywtMS4zMDMgNC42MiwtMi43MjkgOS4xODksLTUuNDk3IDEzLjcwOCwtOC4zMDgiLz48cGF0aCBpbmtzY2FwZTpjb25uZWN0b3ItY3VydmF0dXJlPSIwIiBpZD0icGF0aDE4NiIgc3R5bGU9ImZpbGw6IzRmYTJhYTtmaWxsLW9wYWNpdHk6MTtmaWxsLXJ1bGU6bm9uemVybztzdHJva2U6bm9uZTtzdHJva2Utd2lkdGg6MC4xIiBkPSJtIDQ4My41OTksMTM0LjMxMSBjIDAuMzM2LC0zLjYwNSAwLjY3MSwtNy4yMDcgMS4wMDcsLTEwLjgxIDQ3Ljk4OCw0LjQ3IDk2LjI5LDQuNDcgMTQ0LjI4LDAgMC4zMzUsMy42MDMgMC42NzEsNy4yMDcgMS4wMDYsMTAuODEyIC00OC42Niw0LjUzMSAtOTcuNjM1LDQuNTMxIC0xNDYuMjkzLC0wLjAwMiIvPjxwYXRoIGlua3NjYXBlOmNvbm5lY3Rvci1jdXJ2YXR1cmU9IjAiIGlkPSJwYXRoMTg4IiBzdHlsZT0iZmlsbDojYWUyZDAwO2ZpbGwtb3BhY2l0eToxO2ZpbGwtcnVsZTpub256ZXJvO3N0cm9rZTpub25lO3N0cm9rZS13aWR0aDowLjEiIGQ9Im0gNjcxLjIwNywxNTMuMjk5IGMgLTc1LjkyMiwxMC44MDggLTE1Mi45OTIsMTAuODA4IC0yMjguOTEyLDAgNS4yMDIsLTYuNzAxIDEwLjI5LC0xMy40NTIgMTUuMjY5LC0yMC4yNTIgLTMuMTMsLTcuODE5IC02LjE0NCwtMTUuNjU1IC05LjA0MSwtMjMuNTA3IDEyLjI5NywxLjc1IDI0LjYyOCwzLjIgMzYuOTc4LDQuMzUgLTQuNTE5LDIuODExIC05LjA4OCw1LjU3OSAtMTMuNzA4LDguMzA4IDQuMjY5LDAuNDcxIDguNTM4LDAuOTA1IDEyLjgxMywxLjMwMyAtMC4zMzYsMy42MDMgLTAuNjcxLDcuMjA1IC0xLjAwNywxMC44MSA0OC42NTgsNC41MzMgOTcuNjMzLDQuNTMzIDE0Ni4yOTMsMC4wMDIgLTAuMzM1LC0zLjYwNSAtMC42NzEsLTcuMjA5IC0xLjAwNiwtMTAuODEyIDQuMjc2LC0wLjM5OCA4LjU0OCwtMC44MzIgMTIuODIxLC0xLjMwMyAtNC42MjQsLTIuNzI5IC05LjE5NiwtNS40OTUgLTEzLjcxOCwtOC4zMDggMTIuMzU1LC0xLjE0OCAyNC42ODgsLTIuNiAzNi45OSwtNC4zNSAtMi44OTksNy44NTIgLTUuOTExLDE1LjY4OCAtOS4wNDEsMjMuNTA3IDQuOTc5LDYuOCAxMC4wNjksMTMuNTUxIDE1LjI2OSwyMC4yNTIiLz48cGF0aCBpbmtzY2FwZTpjb25uZWN0b3ItY3VydmF0dXJlPSIwIiBpZD0icGF0aDE5MCIgc3R5bGU9ImZpbGw6I2NhNTYyZTtmaWxsLW9wYWNpdHk6MTtmaWxsLXJ1bGU6bm9uemVybztzdHJva2U6bm9uZTtzdHJva2Utd2lkdGg6MC4xIiBkPSJtIDY0MS43MDcsMTIyLjE5OCBjIC01Ni40NjksNi4yMDYgLTExMy40NDUsNi4yMDYgLTE2OS45MTQsMCAtMS42MDgsMTQuNjQ0IC0zLjIxNiwyOS4yODkgLTQuODI2LDQzLjkzMiA1OS42NzcsNi41NTcgMTE5Ljg5MSw2LjU1NyAxNzkuNTY2LDAgLTEuNjA4LC0xNC42NDMgLTMuMjE4LC0yOS4yODggLTQuODI2LC00My45MzIiLz48cGF0aCBpbmtzY2FwZTpjb25uZWN0b3ItY3VydmF0dXJlPSIwIiBpZD0icGF0aDE5MiIgc3R5bGU9ImZpbGw6I2ZmZmZmZjtmaWxsLW9wYWNpdHk6MTtmaWxsLXJ1bGU6bm9uemVybztzdHJva2U6bm9uZTtzdHJva2Utd2lkdGg6MC4xIiBkPSJtIDU1Ni43NTIsNzYuMDcxMSBjIC0xOS40MjcsMCAtMzcuODkzLDYuODM3MSAtNTIuNTQyLDE5LjM1MjcgdiA5OS4zMTkyIGMgMy4yMSwyLjE1MSA2Ljc3LDUuMDA0IDExLjA0Miw4LjQ4NCAyLjE4NiwxLjc4MyA1LjI2LDQuMjg2IDcuMTYyLDUuNjQzIGggNjguNjc0IGMgMS45MDIsLTEuMzU3IDQuOTc1LC0zLjg2IDcuMTY1LC01LjY0MyA0LjI2OSwtMy40OCA3LjgyOSwtNi4zMzMgMTEuMDM5LC04LjQ4NCBWIDk1LjQyMzggQyA1OTQuNjQxLDgyLjkwODIgNTc2LjE3NSw3Ni4wNzExIDU1Ni43NTIsNzYuMDcxMSIvPjxwYXRoIGlua3NjYXBlOmNvbm5lY3Rvci1jdXJ2YXR1cmU9IjAiIGlkPSJwYXRoMTk0IiBzdHlsZT0iZmlsbDojMzI0MzViO2ZpbGwtb3BhY2l0eToxO2ZpbGwtcnVsZTpub256ZXJvO3N0cm9rZTpub25lO3N0cm9rZS13aWR0aDowLjEiIGQ9Im0gNTU2Ljc1Miw3OS4yMTAyIGMgLTE4LjA0NywwIC0zNS41MzIsNi4yNjc5IC00OS40MDMsMTcuNjc2OSB2IDk2LjIwNjkgYyAzLjAwNiwyLjEyNiA2LjI4LDQuNzYyIDkuODg1LDcuNyAxLjc4NSwxLjQ1NiA0LjM2MywzLjU1NCA2LjIwOCw0LjkzNyBoIDY2LjYyIGMgMS44NDQsLTEuMzgzIDQuNDE3LC0zLjQ4MSA2LjIwNywtNC45MzUgMy42MDQsLTIuOTQgNi44NzYsLTUuNTc2IDkuODgyLC03LjcwMiBWIDk2Ljg4NzEgQyA1OTIuMjgxLDg1LjQ3ODEgNTc0Ljc5OCw3OS4yMTAyIDU1Ni43NTIsNzkuMjEwMiIvPjxnIHN0eWxlPSJmb250LXN0eWxlOm5vcm1hbDtmb250LXZhcmlhbnQ6bm9ybWFsO2ZvbnQtd2VpZ2h0Om5vcm1hbDtmb250LXN0cmV0Y2g6bm9ybWFsO2ZvbnQtc2l6ZToxMjIuODc3cHg7bGluZS1oZWlnaHQ6MS4yNTtmb250LWZhbWlseTpBbGdlcmlhbjstaW5rc2NhcGUtZm9udC1zcGVjaWZpY2F0aW9uOidBbGdlcmlhbiBOb3JtYWwnO2ZvbnQtdmFyaWFudC1saWdhdHVyZXM6bm9ybWFsO2ZvbnQtdmFyaWFudC1jYXBzOm5vcm1hbDtmb250LXZhcmlhbnQtbnVtZXJpYzpub3JtYWw7Zm9udC12YXJpYW50LWVhc3QtYXNpYW46bm9ybWFsO2xldHRlci1zcGFjaW5nOjBweDt3b3JkLXNwYWNpbmc6MHB4O2ZpbGw6I2ZmZmZmZjtmaWxsLW9wYWNpdHk6MTtzdHJva2U6bm9uZTtzdHJva2Utd2lkdGg6My4wNzE5MyIgaWQ9InRleHQxMTUxIiB0cmFuc2Zvcm09InNjYWxlKDEsLTEpIiBhcmlhLWxhYmVsPSJGIj48cGF0aCBpZD0icGF0aDg0MCIgc3R5bGU9ImZvbnQtc3R5bGU6bm9ybWFsO2ZvbnQtdmFyaWFudDpub3JtYWw7Zm9udC13ZWlnaHQ6bm9ybWFsO2ZvbnQtc3RyZXRjaDpub3JtYWw7Zm9udC1zaXplOjEyMi44NzdweDtmb250LWZhbWlseTpBbGdlcmlhbjstaW5rc2NhcGUtZm9udC1zcGVjaWZpY2F0aW9uOidBbGdlcmlhbiBOb3JtYWwnO2ZvbnQtdmFyaWFudC1saWdhdHVyZXM6bm9ybWFsO2ZvbnQtdmFyaWFudC1jYXBzOm5vcm1hbDtmb250LXZhcmlhbnQtbnVtZXJpYzpub3JtYWw7Zm9udC12YXJpYW50LWVhc3QtYXNpYW46bm9ybWFsO2ZpbGw6I2ZmZmZmZjtmaWxsLW9wYWNpdHk6MTtzdHJva2Utd2lkdGg6My4wNzE5MyIgZD0ibSA1MjUuMjIwNzYsLTE4My40MTk2IGggNjIuMjc4NDggcSAtMy43MTk5MSw0LjkxOTg4IC01LjMzOTg3LDcuNzM5ODEgLTEuNTU5OTYsMi44MTk5MyAtNC4wMTk5LDkuMDU5NzggbCAtMC40Nzk5OSwxLjE5OTk3IHEgLTMuOTU5OSwtOC4xNTk4IC03Ljg1OTgsLTEwLjU1OTc0IC0zLjgzOTkxLC0yLjM5OTk0IC0xMy4wMTk2OSwtMi4zOTk5NCBsIC0zLjQxOTkxLDAuMDYgLTUuODE5ODYsLTAuMDYgLTIuMjE5OTUsLTAuMDYgdiAyOC4wNzkzMSBoIDMuNjU5OTEgdiAtMjQuNzc5MzkgbCAxLjczOTk2LC0wLjA2IHEgMy43MTk5MSwtMC4xNzk5OSA3LjkxOTgxLC0wLjE3OTk5IDEyLjIzOTcsMCAxNS4yOTk2Miw2LjM1OTg0IC0yLjkzOTkyLC0yLjgxOTkzIC02LjQxOTg0LC0zLjc3OTkxIC0zLjQxOTkxLC0xLjAxOTk3IC0xMC42MTk3NCwtMS4wMTk5NyAtMi41Nzk5NCwwIC02LjQxOTg0LDAuMjk5OTkgdiAyMy4xNTk0MyBoIDkuMDU5NzggbCA5LjU5OTc2LC0xMC4xMzk3NSB2IDI1LjEzOTM5IGwgLTEwLjA3OTc1LC05Ljk1OTc2IGggLTEzLjczOTY3IHYgMzAuMjM5MjYgbCA3LjY3OTgyLDcuNzk5ODEgaCAtMjkuNDU5MjggbCA5Ljc3OTc2LC03Ljc5OTgxIHYgLTI1Ljc5OTM3IHEgLTQuNjE5ODksMCAtOC4wOTk4MSwzLjQ3OTkyIGwgLTEuMTM5OTcsLTEuMjU5OTcgcSAzLjQ3OTkyLC0zLjgzOTkxIDkuMjM5NzgsLTMuODM5OTEgdiAtMi44MTk5MyBxIC0xLjI1OTk3LC0wLjEyIC0xLjc5OTk2LC0wLjEyIC01LjU3OTg2LDAgLTkuNjU5NzYsNC41NTk4OSBsIC0wLjQxOTk5LC0wLjk1OTk3IHEgMi42OTk5MywtNy43OTk4MSAxMS44Nzk3MSwtOC41MTk4IHYgLTI1LjMxOTM4IHogbSA2Ni44MzgzNywzLjY1OTkxIHEgLTguNTc5NzksMTAuMDE5NzYgLTEwLjc5OTczLDE4LjM1OTU1IGwgLTEuMjU5OTcsLTAuODM5OTggcSAyLjI3OTk0LC05LjQxOTc3IDEwLjk3OTczLC0xOC41Mzk1NCB6IG0gLTE4LjUzOTU1LDIxLjM1OTQ4IHYgMjUuOTE5MzcgbCAtMS41NTk5NiwtMC44OTk5OCB2IC0yNS45MTkzNyB6IG0gLTEwLjczOTczLDE4LjExOTU2IGggLTEyLjI5OTcgdiAyNS42NzkzNyBsIDEwLjU1OTc0LDEzLjA3OTY4IGggLTM0LjczOTE1IGwgLTEuNDk5OTcsLTEuNjE5OTYgaCAzMi44NzkyIGwgLTguNjk5NzksLTEwLjczOTc0IHYgLTI4LjAxOTMxIGggMTIuMDU5NzEgeiIvPjwvZz48L2c+PC9zdmc+;fillColor=#00AD8B;" vertex="1" parent="1">
          <mxGeometry x="20" y="-99.87" width="202.39" height="140" as="geometry" />
        </mxCell>
        <mxCell id="zXE36dw8NgoIa7MhYFlX-7" value="&lt;font size=&quot;1&quot; color=&quot;#32435b&quot;&gt;&lt;b style=&quot;font-size: 55px&quot;&gt;Finsdorfer &lt;br&gt;Abendblatt&lt;/b&gt;&lt;/font&gt;" style="text;html=1;strokeColor=none;fillColor=none;align=center;verticalAlign=middle;whiteSpace=wrap;rounded=0;" parent="1" vertex="1">
          <mxGeometry x="220" y="-99.86" width="360" height="140" as="geometry" />
        </mxCell>
      </root>
    </mxGraphModel>
  </diagram>
</mxfile>
